%TF.GenerationSoftware,KiCad,Pcbnew,(5.99.0-9654-g274d4e2eb4)*%
%TF.CreationDate,2021-03-31T09:38:20+08:00*%
%TF.ProjectId,16bit-pwm-dac-board,31366269-742d-4707-976d-2d6461632d62,MK1B1*%
%TF.SameCoordinates,PXfd9da600PY17d7840*%
%TF.FileFunction,Paste,Top*%
%TF.FilePolarity,Positive*%
%FSLAX46Y46*%
G04 Gerber Fmt 4.6, Leading zero omitted, Abs format (unit mm)*
G04 Created by KiCad (PCBNEW (5.99.0-9654-g274d4e2eb4)) date 2021-03-31 09:38:20*
%MOMM*%
%LPD*%
G01*
G04 APERTURE LIST*
G04 Aperture macros list*
%AMRoundRect*
0 Rectangle with rounded corners*
0 $1 Rounding radius*
0 $2 $3 $4 $5 $6 $7 $8 $9 X,Y pos of 4 corners*
0 Add a 4 corners polygon primitive as box body*
4,1,4,$2,$3,$4,$5,$6,$7,$8,$9,$2,$3,0*
0 Add four circle primitives for the rounded corners*
1,1,$1+$1,$2,$3*
1,1,$1+$1,$4,$5*
1,1,$1+$1,$6,$7*
1,1,$1+$1,$8,$9*
0 Add four rect primitives between the rounded corners*
20,1,$1+$1,$2,$3,$4,$5,0*
20,1,$1+$1,$4,$5,$6,$7,0*
20,1,$1+$1,$6,$7,$8,$9,0*
20,1,$1+$1,$8,$9,$2,$3,0*%
%AMOutline4P*
0 Free polygon, 4 corners , with rotation*
0 The origin of the aperture is its center*
0 number of corners: always 4*
0 $1 to $8 corner X, Y*
0 $9 Rotation angle, in degrees counterclockwise*
0 create outline with 4 corners*
4,1,4,$1,$2,$3,$4,$5,$6,$7,$8,$1,$2,$9*%
%AMFreePoly0*
4,1,9,3.862500,-0.866500,0.737500,-0.866500,0.737500,-0.450000,-0.737500,-0.450000,-0.737500,0.450000,0.737500,0.450000,0.737500,0.866500,3.862500,0.866500,3.862500,-0.866500,3.862500,-0.866500,$1*%
G04 Aperture macros list end*
%ADD10RoundRect,0.150000X-0.825000X-0.150000X0.825000X-0.150000X0.825000X0.150000X-0.825000X0.150000X0*%
%ADD11RoundRect,0.237500X-0.237500X0.300000X-0.237500X-0.300000X0.237500X-0.300000X0.237500X0.300000X0*%
%ADD12RoundRect,0.237500X0.300000X0.237500X-0.300000X0.237500X-0.300000X-0.237500X0.300000X-0.237500X0*%
%ADD13RoundRect,0.237500X-0.300000X-0.237500X0.300000X-0.237500X0.300000X0.237500X-0.300000X0.237500X0*%
%ADD14RoundRect,0.237500X-0.250000X-0.237500X0.250000X-0.237500X0.250000X0.237500X-0.250000X0.237500X0*%
%ADD15RoundRect,0.237500X0.287500X0.237500X-0.287500X0.237500X-0.287500X-0.237500X0.287500X-0.237500X0*%
%ADD16RoundRect,0.237500X0.250000X0.237500X-0.250000X0.237500X-0.250000X-0.237500X0.250000X-0.237500X0*%
%ADD17RoundRect,0.237500X0.237500X-0.300000X0.237500X0.300000X-0.237500X0.300000X-0.237500X-0.300000X0*%
%ADD18RoundRect,0.150000X0.587500X0.150000X-0.587500X0.150000X-0.587500X-0.150000X0.587500X-0.150000X0*%
%ADD19RoundRect,0.237500X-0.008839X-0.344715X0.344715X0.008839X0.008839X0.344715X-0.344715X-0.008839X0*%
%ADD20RoundRect,0.237500X0.237500X-0.250000X0.237500X0.250000X-0.237500X0.250000X-0.237500X-0.250000X0*%
%ADD21Outline4P,-1.800000X-1.150000X1.800000X-0.550000X1.800000X0.550000X-1.800000X1.150000X0.000000*%
%ADD22Outline4P,-1.800000X-1.150000X1.800000X-0.550000X1.800000X0.550000X-1.800000X1.150000X180.000000*%
%ADD23RoundRect,0.237500X-0.237500X0.250000X-0.237500X-0.250000X0.237500X-0.250000X0.237500X0.250000X0*%
%ADD24RoundRect,0.237500X0.044194X0.380070X-0.380070X-0.044194X-0.044194X-0.380070X0.380070X0.044194X0*%
%ADD25R,1.200000X0.900000*%
%ADD26R,1.300000X0.900000*%
%ADD27FreePoly0,0.000000*%
%ADD28RoundRect,0.150000X0.825000X0.150000X-0.825000X0.150000X-0.825000X-0.150000X0.825000X-0.150000X0*%
%ADD29R,0.900000X1.300000*%
%ADD30FreePoly0,90.000000*%
%ADD31RoundRect,0.150000X-0.587500X-0.150000X0.587500X-0.150000X0.587500X0.150000X-0.587500X0.150000X0*%
G04 APERTURE END LIST*
D10*
%TO.C,U104*%
X38629625Y45662625D03*
X38629625Y44392625D03*
X38629625Y43122625D03*
X38629625Y41852625D03*
X43579625Y41852625D03*
X43579625Y43122625D03*
X43579625Y44392625D03*
X43579625Y45662625D03*
%TD*%
D11*
%TO.C,C101*%
X37906000Y35895500D03*
X37906000Y34170500D03*
%TD*%
D12*
%TO.C,C108*%
X32226500Y47352000D03*
X30501500Y47352000D03*
%TD*%
D13*
%TO.C,C107*%
X30501500Y45701000D03*
X32226500Y45701000D03*
%TD*%
D14*
%TO.C,R111*%
X62963500Y11284000D03*
X64788500Y11284000D03*
%TD*%
D10*
%TO.C,U102*%
X40003000Y37954000D03*
X40003000Y36684000D03*
X40003000Y35414000D03*
X40003000Y34144000D03*
X44953000Y34144000D03*
X44953000Y35414000D03*
X44953000Y36684000D03*
X44953000Y37954000D03*
%TD*%
D12*
%TO.C,C110*%
X43999125Y47313625D03*
X42274125Y47313625D03*
%TD*%
D15*
%TO.C,D102*%
X68561000Y11284000D03*
X66811000Y11284000D03*
%TD*%
D16*
%TO.C,R109*%
X32276500Y42526000D03*
X30451500Y42526000D03*
%TD*%
D17*
%TO.C,C114*%
X37841000Y22867500D03*
X37841000Y24592500D03*
%TD*%
D16*
%TO.C,R110*%
X39985125Y47313625D03*
X38160125Y47313625D03*
%TD*%
D14*
%TO.C,R103*%
X30451500Y39478000D03*
X32276500Y39478000D03*
%TD*%
D18*
%TO.C,Q102*%
X43223500Y26717000D03*
X43223500Y28617000D03*
X41348500Y27667000D03*
%TD*%
D11*
%TO.C,C115*%
X37841000Y28529500D03*
X37841000Y26804500D03*
%TD*%
D19*
%TO.C,R112*%
X68818765Y21941765D03*
X70109235Y23232235D03*
%TD*%
D20*
%TO.C,R114*%
X39365000Y22817500D03*
X39365000Y24642500D03*
%TD*%
D14*
%TO.C,R113*%
X62963500Y14078000D03*
X64788500Y14078000D03*
%TD*%
D13*
%TO.C,C116*%
X48789500Y28683000D03*
X50514500Y28683000D03*
%TD*%
D11*
%TO.C,C119*%
X58669000Y25608500D03*
X58669000Y23883500D03*
%TD*%
D21*
%TO.C,D101*%
X15764000Y12173000D03*
D22*
X21564000Y12173000D03*
%TD*%
D23*
%TO.C,R115*%
X39365000Y28579500D03*
X39365000Y26754500D03*
%TD*%
D14*
%TO.C,R108*%
X26514500Y47352000D03*
X28339500Y47352000D03*
%TD*%
D24*
%TO.C,C112*%
X71216880Y22053880D03*
X69997120Y20834120D03*
%TD*%
D17*
%TO.C,C111*%
X20463000Y36329500D03*
X20463000Y38054500D03*
%TD*%
D25*
%TO.C,D106*%
X49144000Y27031000D03*
X49144000Y23731000D03*
%TD*%
D26*
%TO.C,U103*%
X16252000Y18626000D03*
D27*
X16339500Y17126000D03*
D26*
X16252000Y15626000D03*
%TD*%
D23*
%TO.C,R104*%
X20442000Y42041500D03*
X20442000Y40216500D03*
%TD*%
D13*
%TO.C,C109*%
X22521500Y36303000D03*
X24246500Y36303000D03*
%TD*%
D11*
%TO.C,C105*%
X48701000Y35895500D03*
X48701000Y34170500D03*
%TD*%
D25*
%TO.C,D105*%
X51557000Y23731000D03*
X51557000Y27031000D03*
%TD*%
D11*
%TO.C,C103*%
X47050000Y35895500D03*
X47050000Y34170500D03*
%TD*%
D14*
%TO.C,R102*%
X30451500Y41002000D03*
X32276500Y41002000D03*
%TD*%
D17*
%TO.C,C106*%
X14473000Y18803500D03*
X14473000Y20528500D03*
%TD*%
D28*
%TO.C,U101*%
X27870000Y37954000D03*
X27870000Y39224000D03*
X27870000Y40494000D03*
X27870000Y41764000D03*
X27870000Y43034000D03*
X27870000Y44304000D03*
X27870000Y45574000D03*
X22920000Y45574000D03*
X22920000Y44304000D03*
X22920000Y43034000D03*
X22920000Y41764000D03*
X22920000Y40494000D03*
X22920000Y39224000D03*
X22920000Y37954000D03*
%TD*%
D13*
%TO.C,C118*%
X45233500Y23730000D03*
X46958500Y23730000D03*
%TD*%
D15*
%TO.C,D103*%
X68561000Y14078000D03*
X66811000Y14078000D03*
%TD*%
D16*
%TO.C,R105*%
X24910500Y47352000D03*
X23085500Y47352000D03*
%TD*%
D14*
%TO.C,R107*%
X30451500Y44050000D03*
X32276500Y44050000D03*
%TD*%
D29*
%TO.C,U105*%
X53867000Y23985000D03*
D30*
X55367000Y24072500D03*
D29*
X56867000Y23985000D03*
%TD*%
D31*
%TO.C,Q101*%
X41348500Y24680000D03*
X41348500Y22780000D03*
X43223500Y23730000D03*
%TD*%
D14*
%TO.C,R101*%
X30451500Y37954000D03*
X32276500Y37954000D03*
%TD*%
D20*
%TO.C,R106*%
X20442000Y44026500D03*
X20442000Y45851500D03*
%TD*%
D25*
%TO.C,D104*%
X46096000Y25382000D03*
X46096000Y28682000D03*
%TD*%
D17*
%TO.C,C104*%
X14473000Y15374500D03*
X14473000Y17099500D03*
%TD*%
M02*
