%TF.GenerationSoftware,KiCad,Pcbnew,(5.99.0-9654-g274d4e2eb4)*%
%TF.CreationDate,2021-03-31T09:38:20+08:00*%
%TF.ProjectId,16bit-pwm-dac-board,31366269-742d-4707-976d-2d6461632d62,MK1B1*%
%TF.SameCoordinates,PXfd9da600PY17d7840*%
%TF.FileFunction,Soldermask,Bot*%
%TF.FilePolarity,Negative*%
%FSLAX46Y46*%
G04 Gerber Fmt 4.6, Leading zero omitted, Abs format (unit mm)*
G04 Created by KiCad (PCBNEW (5.99.0-9654-g274d4e2eb4)) date 2021-03-31 09:38:20*
%MOMM*%
%LPD*%
G01*
G04 APERTURE LIST*
G04 Aperture macros list*
%AMRoundRect*
0 Rectangle with rounded corners*
0 $1 Rounding radius*
0 $2 $3 $4 $5 $6 $7 $8 $9 X,Y pos of 4 corners*
0 Add a 4 corners polygon primitive as box body*
4,1,4,$2,$3,$4,$5,$6,$7,$8,$9,$2,$3,0*
0 Add four circle primitives for the rounded corners*
1,1,$1+$1,$2,$3*
1,1,$1+$1,$4,$5*
1,1,$1+$1,$6,$7*
1,1,$1+$1,$8,$9*
0 Add four rect primitives between the rounded corners*
20,1,$1+$1,$2,$3,$4,$5,0*
20,1,$1+$1,$4,$5,$6,$7,0*
20,1,$1+$1,$6,$7,$8,$9,0*
20,1,$1+$1,$8,$9,$2,$3,0*%
G04 Aperture macros list end*
%ADD10C,0.150000*%
%ADD11R,1.600000X1.600000*%
%ADD12C,1.600000*%
%ADD13R,1.700000X1.700000*%
%ADD14O,1.700000X1.700000*%
%ADD15C,0.800000*%
%ADD16C,7.000000*%
%ADD17C,10.160000*%
%ADD18O,7.000000X3.500000*%
%ADD19RoundRect,0.400000X-0.400000X0.400000X-0.400000X-0.400000X0.400000X-0.400000X0.400000X0.400000X0*%
G04 APERTURE END LIST*
D10*
X70693523Y45926619D02*
X70693523Y46926619D01*
X70455428Y46926619D01*
X70312571Y46879000D01*
X70217333Y46783761D01*
X70169714Y46688523D01*
X70122095Y46498047D01*
X70122095Y46355190D01*
X70169714Y46164714D01*
X70217333Y46069476D01*
X70312571Y45974238D01*
X70455428Y45926619D01*
X70693523Y45926619D01*
X69693523Y46450428D02*
X69360190Y46450428D01*
X69217333Y45926619D02*
X69693523Y45926619D01*
X69693523Y46926619D01*
X69217333Y46926619D01*
X68836380Y45974238D02*
X68693523Y45926619D01*
X68455428Y45926619D01*
X68360190Y45974238D01*
X68312571Y46021857D01*
X68264952Y46117095D01*
X68264952Y46212333D01*
X68312571Y46307571D01*
X68360190Y46355190D01*
X68455428Y46402809D01*
X68645904Y46450428D01*
X68741142Y46498047D01*
X68788761Y46545666D01*
X68836380Y46640904D01*
X68836380Y46736142D01*
X68788761Y46831380D01*
X68741142Y46879000D01*
X68645904Y46926619D01*
X68407809Y46926619D01*
X68264952Y46879000D01*
X67836380Y45926619D02*
X67836380Y46926619D01*
X66836380Y46879000D02*
X66931619Y46926619D01*
X67074476Y46926619D01*
X67217333Y46879000D01*
X67312571Y46783761D01*
X67360190Y46688523D01*
X67407809Y46498047D01*
X67407809Y46355190D01*
X67360190Y46164714D01*
X67312571Y46069476D01*
X67217333Y45974238D01*
X67074476Y45926619D01*
X66979238Y45926619D01*
X66836380Y45974238D01*
X66788761Y46021857D01*
X66788761Y46355190D01*
X66979238Y46355190D01*
X66360190Y45926619D02*
X66360190Y46926619D01*
X65788761Y45926619D01*
X65788761Y46926619D01*
X65312571Y46450428D02*
X64979238Y46450428D01*
X64836380Y45926619D02*
X65312571Y45926619D01*
X65312571Y46926619D01*
X64836380Y46926619D01*
X63836380Y45926619D02*
X64169714Y46402809D01*
X64407809Y45926619D02*
X64407809Y46926619D01*
X64026857Y46926619D01*
X63931619Y46879000D01*
X63884000Y46831380D01*
X63836380Y46736142D01*
X63836380Y46593285D01*
X63884000Y46498047D01*
X63931619Y46450428D01*
X64026857Y46402809D01*
X64407809Y46402809D01*
X63407809Y46021857D02*
X63360190Y45974238D01*
X63407809Y45926619D01*
X63455428Y45974238D01*
X63407809Y46021857D01*
X63407809Y45926619D01*
X63407809Y46545666D02*
X63360190Y46498047D01*
X63407809Y46450428D01*
X63455428Y46498047D01*
X63407809Y46545666D01*
X63407809Y46450428D01*
X61693523Y45926619D02*
X62169714Y45926619D01*
X62169714Y46926619D01*
X61360190Y45926619D02*
X61360190Y46926619D01*
X60217333Y46926619D02*
X59979238Y45926619D01*
X59788761Y46640904D01*
X59598285Y45926619D01*
X59360190Y46926619D01*
X58979238Y46450428D02*
X58645904Y46450428D01*
X58503047Y45926619D02*
X58979238Y45926619D01*
X58979238Y46926619D01*
X58503047Y46926619D01*
X58074476Y45926619D02*
X58074476Y46926619D01*
X69788761Y45078523D02*
X69884000Y45126142D01*
X70074476Y45126142D01*
X70169714Y45078523D01*
X70264952Y44983285D01*
X70312571Y44888047D01*
X70312571Y44697571D01*
X70264952Y44602333D01*
X70169714Y44507095D01*
X70074476Y44459476D01*
X69884000Y44459476D01*
X69788761Y44507095D01*
X69979238Y45459476D02*
X70217333Y45411857D01*
X70455428Y45269000D01*
X70598285Y45030904D01*
X70645904Y44792809D01*
X70598285Y44554714D01*
X70455428Y44316619D01*
X70217333Y44173761D01*
X69979238Y44126142D01*
X69741142Y44173761D01*
X69503047Y44316619D01*
X69360190Y44554714D01*
X69312571Y44792809D01*
X69360190Y45030904D01*
X69503047Y45269000D01*
X69741142Y45411857D01*
X69979238Y45459476D01*
X68169714Y45221380D02*
X68122095Y45269000D01*
X68026857Y45316619D01*
X67788761Y45316619D01*
X67693523Y45269000D01*
X67645904Y45221380D01*
X67598285Y45126142D01*
X67598285Y45030904D01*
X67645904Y44888047D01*
X68217333Y44316619D01*
X67598285Y44316619D01*
X66979238Y45316619D02*
X66884000Y45316619D01*
X66788761Y45269000D01*
X66741142Y45221380D01*
X66693523Y45126142D01*
X66645904Y44935666D01*
X66645904Y44697571D01*
X66693523Y44507095D01*
X66741142Y44411857D01*
X66788761Y44364238D01*
X66884000Y44316619D01*
X66979238Y44316619D01*
X67074476Y44364238D01*
X67122095Y44411857D01*
X67169714Y44507095D01*
X67217333Y44697571D01*
X67217333Y44935666D01*
X67169714Y45126142D01*
X67122095Y45221380D01*
X67074476Y45269000D01*
X66979238Y45316619D01*
X66264952Y45221380D02*
X66217333Y45269000D01*
X66122095Y45316619D01*
X65884000Y45316619D01*
X65788761Y45269000D01*
X65741142Y45221380D01*
X65693523Y45126142D01*
X65693523Y45030904D01*
X65741142Y44888047D01*
X66312571Y44316619D01*
X65693523Y44316619D01*
X64741142Y44316619D02*
X65312571Y44316619D01*
X65026857Y44316619D02*
X65026857Y45316619D01*
X65122095Y45173761D01*
X65217333Y45078523D01*
X65312571Y45030904D01*
X64264952Y44364238D02*
X64264952Y44316619D01*
X64312571Y44221380D01*
X64360190Y44173761D01*
X62741142Y44840428D02*
X62598285Y44792809D01*
X62550666Y44745190D01*
X62503047Y44649952D01*
X62503047Y44507095D01*
X62550666Y44411857D01*
X62598285Y44364238D01*
X62693523Y44316619D01*
X63074476Y44316619D01*
X63074476Y45316619D01*
X62741142Y45316619D01*
X62645904Y45269000D01*
X62598285Y45221380D01*
X62550666Y45126142D01*
X62550666Y45030904D01*
X62598285Y44935666D01*
X62645904Y44888047D01*
X62741142Y44840428D01*
X63074476Y44840428D01*
X62122095Y44364238D02*
X61979238Y44316619D01*
X61741142Y44316619D01*
X61645904Y44364238D01*
X61598285Y44411857D01*
X61550666Y44507095D01*
X61550666Y44602333D01*
X61598285Y44697571D01*
X61645904Y44745190D01*
X61741142Y44792809D01*
X61931619Y44840428D01*
X62026857Y44888047D01*
X62074476Y44935666D01*
X62122095Y45030904D01*
X62122095Y45126142D01*
X62074476Y45221380D01*
X62026857Y45269000D01*
X61931619Y45316619D01*
X61693523Y45316619D01*
X61550666Y45269000D01*
X61264952Y45316619D02*
X60693523Y45316619D01*
X60979238Y44316619D02*
X60979238Y45316619D01*
X59407809Y44792809D02*
X59407809Y44316619D01*
X59741142Y45316619D02*
X59407809Y44792809D01*
X59074476Y45316619D01*
X58741142Y44316619D02*
X58741142Y45316619D01*
X58169714Y44316619D01*
X58169714Y45316619D01*
D11*
%TO.C,C113*%
X31999000Y21825000D03*
D12*
X31999000Y18325000D03*
%TD*%
D13*
%TO.C,J104*%
X2281000Y28800000D03*
D14*
X2281000Y26260000D03*
X2281000Y23720000D03*
X2281000Y21180000D03*
%TD*%
D15*
%TO.C,H101*%
X5856155Y44143845D03*
X4000000Y48625000D03*
D16*
X4000000Y46000000D03*
D15*
X1375000Y46000000D03*
X5856155Y47856155D03*
X2143845Y47856155D03*
X2143845Y44143845D03*
X4000000Y43375000D03*
X6625000Y46000000D03*
%TD*%
%TO.C,H103*%
X76000000Y6625000D03*
X76000000Y1375000D03*
X73375000Y4000000D03*
D16*
X76000000Y4000000D03*
D15*
X78625000Y4000000D03*
X77856155Y2143845D03*
X77856155Y5856155D03*
X74143845Y2143845D03*
X74143845Y5856155D03*
%TD*%
D13*
%TO.C,J103*%
X31105000Y27032000D03*
D14*
X33645000Y27032000D03*
%TD*%
D11*
%TO.C,C117*%
X56383000Y16898500D03*
D12*
X56383000Y20398500D03*
%TD*%
D13*
%TO.C,J107*%
X48778000Y45066000D03*
D14*
X51318000Y45066000D03*
X53858000Y45066000D03*
%TD*%
D13*
%TO.C,J105*%
X76830000Y19920000D03*
D14*
X76830000Y17380000D03*
%TD*%
D17*
%TO.C,J102*%
X49525000Y7220000D03*
%TD*%
D15*
%TO.C,H102*%
X4000000Y6625000D03*
X2143845Y5856155D03*
X4000000Y1375000D03*
X1375000Y4000000D03*
X5856155Y2143845D03*
X5856155Y5856155D03*
X2143845Y2143845D03*
D16*
X4000000Y4000000D03*
D15*
X6625000Y4000000D03*
%TD*%
D11*
%TO.C,C102*%
X13605000Y7220000D03*
D12*
X13605000Y3720000D03*
%TD*%
D17*
%TO.C,J101*%
X30475000Y7220000D03*
%TD*%
D15*
%TO.C,H104*%
X74143845Y47856155D03*
X77856155Y47856155D03*
X73375000Y46000000D03*
X78625000Y46000000D03*
X76000000Y48625000D03*
X76000000Y43375000D03*
D16*
X76000000Y46000000D03*
D15*
X74143845Y44143845D03*
X77856155Y44143845D03*
%TD*%
D18*
%TO.C,J106*%
X74285000Y28048000D03*
X74385000Y38208000D03*
D19*
X65495000Y33128000D03*
D12*
X65495000Y35668000D03*
X68035000Y33128000D03*
X65495000Y30588000D03*
%TD*%
M02*
