M48
; DRILL file {KiCad (5.99.0-9654-g274d4e2eb4)} date Wed Mar 31 09:38:24 2021
; FORMAT={-:-/ absolute / metric / decimal}
; #@! TF.CreationDate,2021-03-31T09:38:24+08:00
; #@! TF.GenerationSoftware,Kicad,Pcbnew,(5.99.0-9654-g274d4e2eb4)
; #@! TF.FileFunction,Plated,1,2,PTH
FMAT,2
METRIC
; #@! TA.AperFunction,ViaDrill
T1C0.400
; #@! TA.AperFunction,ViaDrill
T2C0.500
; #@! TA.AperFunction,ComponentDrill
T3C0.500
; #@! TA.AperFunction,ViaDrill
T4C0.600
; #@! TA.AperFunction,ComponentDrill
T5C0.800
; #@! TA.AperFunction,ComponentDrill
T6C0.890
; #@! TA.AperFunction,ComponentDrill
T7C1.000
; #@! TA.AperFunction,ComponentDrill
T8C2.010
; #@! TA.AperFunction,ComponentDrill
T9C3.500
; #@! TA.AperFunction,ComponentDrill
T10C6.100
%
G90
G05
T1
; via hole
X2.281Y33.255
X4.567Y35.668
X5.075Y30.969
X6.98Y32.493
X7.234Y33.636
X7.361Y37.7
X9.139Y40.113
X11.044Y26.27
X11.044Y13.443
X11.171Y3.664
X11.425Y37.573
X11.425Y21.063
X11.933Y17.507
X13.457Y40.748
X13.584Y37.7
X16.378Y3.537
X16.632Y26.27
X17.648Y43.923
X17.648Y40.367
X17.648Y37.954
X17.775Y34.144
X18.537Y18.777
X18.664Y40.367
X19.172Y47.733
X20.95Y18.904
X20.95Y17.126
X21.712Y33.509
X22.347Y7.855
X22.347Y3.537
X24.125Y21.698
X25.649Y43.034
X25.649Y39.224
X26.03Y45.32
X26.665Y24.365
X26.919Y33.382
X26.919Y15.475
X29.427Y47.41
X30.094Y35.16
X30.094Y33.382
X30.983Y36.303
X32.38Y31.35
X33.269Y41.002
X33.269Y37.954
X35.174Y36.303
X36.444Y29.953
X36.571Y24.619
X36.698Y26.778
X36.825Y21.444
X37.587Y38.081
X37.841Y25.635
X39.746Y16.745
X39.746Y11.792
X39.746Y5.061
X40.127Y25.762
X40.254Y21.952
X40.762Y31.35
X41.397Y20.428
X41.778Y43.669
X42.794Y22.714
X44.318Y31.35
X44.445Y25.381
X45.207Y22.206
X45.461Y15.602
X45.969Y47.098
X46.096Y27.032
X46.35Y41.764
X48.128Y25.381
X48.89Y31.35
X49.525Y38.081
X49.525Y25.381
X51.43Y25.381
X52.7Y31.35
X53.589Y27.794
X53.589Y26.524
X53.589Y25.381
X55.621Y38.081
X55.621Y33.89
X55.875Y45.066
X56.129Y42.018
X57.272Y28.937
X57.272Y27.921
X57.272Y26.778
X57.272Y25.635
X58.161Y11.792
X58.415Y27.413
X61.59Y38.081
X61.59Y34.525
X64.003Y42.653
X64.384Y17.634
X64.511Y24.365
X68.829Y42.653
X74.417Y33.128
X74.417Y23.603
T2
X40.546Y44.558
X40.546Y41.891
T3
; pad hole
X1.375Y46.0
X1.375Y4.0
X2.144Y47.856
X2.144Y44.144
X2.144Y5.856
X2.144Y2.144
X4.0Y48.625
X4.0Y43.375
X4.0Y6.625
X4.0Y1.375
X5.856Y47.856
X5.856Y44.144
X5.856Y5.856
X5.856Y2.144
X6.625Y46.0
X6.625Y4.0
X73.375Y46.0
X73.375Y4.0
X74.144Y47.856
X74.144Y44.144
X74.144Y5.856
X74.144Y2.144
X76.0Y48.625
X76.0Y43.375
X76.0Y6.625
X76.0Y1.375
X77.856Y47.856
X77.856Y44.144
X77.856Y5.856
X77.856Y2.144
X78.625Y46.0
X78.625Y4.0
T4
; via hole
X20.442Y35.033
X41.778Y37.827
T5
; pad hole
X13.605Y7.22
X13.605Y3.72
X31.999Y21.825
X31.999Y18.325
X56.383Y20.398
X56.383Y16.898
T6
X65.495Y35.668
X65.495Y33.128
X65.495Y30.588
X68.035Y33.128
T7
X2.281Y28.8
X2.281Y26.26
X2.281Y23.72
X2.281Y21.18
X31.105Y27.032
X33.645Y27.032
X48.778Y45.066
X51.318Y45.066
X53.858Y45.066
X76.83Y19.92
X76.83Y17.38
T8
X74.285Y28.048
X74.385Y38.208
T9
X4.0Y46.0
X4.0Y4.0
X76.0Y46.0
X76.0Y4.0
T10
X30.475Y7.22
X49.525Y7.22
T0
M30
