%TF.GenerationSoftware,KiCad,Pcbnew,(5.99.0-9654-g274d4e2eb4)*%
%TF.CreationDate,2021-03-31T09:38:19+08:00*%
%TF.ProjectId,16bit-pwm-dac-board,31366269-742d-4707-976d-2d6461632d62,MK1B1*%
%TF.SameCoordinates,PXfd9da600PY17d7840*%
%TF.FileFunction,Copper,L2,Bot*%
%TF.FilePolarity,Positive*%
%FSLAX46Y46*%
G04 Gerber Fmt 4.6, Leading zero omitted, Abs format (unit mm)*
G04 Created by KiCad (PCBNEW (5.99.0-9654-g274d4e2eb4)) date 2021-03-31 09:38:19*
%MOMM*%
%LPD*%
G01*
G04 APERTURE LIST*
G04 Aperture macros list*
%AMRoundRect*
0 Rectangle with rounded corners*
0 $1 Rounding radius*
0 $2 $3 $4 $5 $6 $7 $8 $9 X,Y pos of 4 corners*
0 Add a 4 corners polygon primitive as box body*
4,1,4,$2,$3,$4,$5,$6,$7,$8,$9,$2,$3,0*
0 Add four circle primitives for the rounded corners*
1,1,$1+$1,$2,$3*
1,1,$1+$1,$4,$5*
1,1,$1+$1,$6,$7*
1,1,$1+$1,$8,$9*
0 Add four rect primitives between the rounded corners*
20,1,$1+$1,$2,$3,$4,$5,0*
20,1,$1+$1,$4,$5,$6,$7,0*
20,1,$1+$1,$6,$7,$8,$9,0*
20,1,$1+$1,$8,$9,$2,$3,0*%
G04 Aperture macros list end*
%TA.AperFunction,ComponentPad*%
%ADD10R,1.600000X1.600000*%
%TD*%
%TA.AperFunction,ComponentPad*%
%ADD11C,1.600000*%
%TD*%
%TA.AperFunction,ComponentPad*%
%ADD12R,1.700000X1.700000*%
%TD*%
%TA.AperFunction,ComponentPad*%
%ADD13O,1.700000X1.700000*%
%TD*%
%TA.AperFunction,ComponentPad*%
%ADD14C,0.800000*%
%TD*%
%TA.AperFunction,ComponentPad*%
%ADD15C,7.000000*%
%TD*%
%TA.AperFunction,ComponentPad*%
%ADD16C,10.160000*%
%TD*%
%TA.AperFunction,ComponentPad*%
%ADD17O,7.000000X3.500000*%
%TD*%
%TA.AperFunction,ComponentPad*%
%ADD18RoundRect,0.400000X-0.400000X0.400000X-0.400000X-0.400000X0.400000X-0.400000X0.400000X0.400000X0*%
%TD*%
%TA.AperFunction,SMDPad,CuDef*%
%ADD19C,2.000000*%
%TD*%
%TA.AperFunction,ViaPad*%
%ADD20C,0.800000*%
%TD*%
%TA.AperFunction,ViaPad*%
%ADD21C,1.200000*%
%TD*%
%TA.AperFunction,Conductor*%
%ADD22C,0.600000*%
%TD*%
%TA.AperFunction,Conductor*%
%ADD23C,0.250000*%
%TD*%
G04 APERTURE END LIST*
%TO.C,NT101*%
G36*
X33380000Y30620000D02*
G01*
X31380000Y30620000D01*
X31380000Y34620000D01*
X33380000Y34620000D01*
X33380000Y30620000D01*
G37*
%TD*%
D10*
%TO.P,C113,1*%
%TO.N,Net-(C113-Pad1)*%
X31999000Y21825000D03*
D11*
%TO.P,C113,2*%
%TO.N,GND*%
X31999000Y18325000D03*
%TD*%
D12*
%TO.P,J104,1,Pin_1*%
%TO.N,/PWM_HI*%
X2281000Y28800000D03*
D13*
%TO.P,J104,2,Pin_2*%
%TO.N,GND*%
X2281000Y26260000D03*
%TO.P,J104,3,Pin_3*%
%TO.N,/PWM_LO*%
X2281000Y23720000D03*
%TO.P,J104,4,Pin_4*%
%TO.N,GND*%
X2281000Y21180000D03*
%TD*%
D14*
%TO.P,H101,1,1*%
%TO.N,GND*%
X5856155Y44143845D03*
X4000000Y48625000D03*
D15*
X4000000Y46000000D03*
D14*
X1375000Y46000000D03*
X5856155Y47856155D03*
X2143845Y47856155D03*
X2143845Y44143845D03*
X4000000Y43375000D03*
X6625000Y46000000D03*
%TD*%
%TO.P,H103,1,1*%
%TO.N,GND*%
X76000000Y6625000D03*
X76000000Y1375000D03*
X73375000Y4000000D03*
D15*
X76000000Y4000000D03*
D14*
X78625000Y4000000D03*
X77856155Y2143845D03*
X77856155Y5856155D03*
X74143845Y2143845D03*
X74143845Y5856155D03*
%TD*%
D12*
%TO.P,J103,1,Pin_1*%
%TO.N,+9V*%
X31105000Y27032000D03*
D13*
%TO.P,J103,2,Pin_2*%
%TO.N,Net-(C113-Pad1)*%
X33645000Y27032000D03*
%TD*%
D10*
%TO.P,C117,1*%
%TO.N,GND*%
X56383000Y16898500D03*
D11*
%TO.P,C117,2*%
%TO.N,Net-(C117-Pad2)*%
X56383000Y20398500D03*
%TD*%
D12*
%TO.P,J107,1,Pin_1*%
%TO.N,GNDA*%
X48778000Y45066000D03*
D13*
%TO.P,J107,2,Pin_2*%
%TO.N,VEE*%
X51318000Y45066000D03*
%TO.P,J107,3,Pin_3*%
%TO.N,-5V*%
X53858000Y45066000D03*
%TD*%
D12*
%TO.P,J105,1,Pin_1*%
%TO.N,/DAC_OUT*%
X76830000Y19920000D03*
D13*
%TO.P,J105,2,Pin_2*%
%TO.N,GNDA*%
X76830000Y17380000D03*
%TD*%
D16*
%TO.P,J102,1,Pin_1*%
%TO.N,GND*%
X49525000Y7220000D03*
%TD*%
D14*
%TO.P,H102,1,1*%
%TO.N,GND*%
X4000000Y6625000D03*
X2143845Y5856155D03*
X4000000Y1375000D03*
X1375000Y4000000D03*
X5856155Y2143845D03*
X5856155Y5856155D03*
X2143845Y2143845D03*
D15*
X4000000Y4000000D03*
D14*
X6625000Y4000000D03*
%TD*%
D10*
%TO.P,C102,1*%
%TO.N,+9V*%
X13605000Y7220000D03*
D11*
%TO.P,C102,2*%
%TO.N,GND*%
X13605000Y3720000D03*
%TD*%
D16*
%TO.P,J101,1,Pin_1*%
%TO.N,/VIN_9V*%
X30475000Y7220000D03*
%TD*%
D14*
%TO.P,H104,1,1*%
%TO.N,GND*%
X74143845Y47856155D03*
X77856155Y47856155D03*
X73375000Y46000000D03*
X78625000Y46000000D03*
X76000000Y48625000D03*
X76000000Y43375000D03*
D15*
X76000000Y46000000D03*
D14*
X74143845Y44143845D03*
X77856155Y44143845D03*
%TD*%
D17*
%TO.P,J106,*%
%TO.N,*%
X74285000Y28048000D03*
X74385000Y38208000D03*
D18*
%TO.P,J106,1,In*%
%TO.N,/DAC_OUT*%
X65495000Y33128000D03*
D11*
%TO.P,J106,2,Ext*%
%TO.N,GNDA*%
X65495000Y35668000D03*
%TO.P,J106,3*%
%TO.N,N/C*%
X68035000Y33128000D03*
%TO.P,J106,4*%
X65495000Y30588000D03*
%TD*%
D19*
%TO.P,NT101,1,1*%
%TO.N,GND*%
X32380000Y30620000D03*
%TO.P,NT101,2,2*%
%TO.N,GNDA*%
X32380000Y34620000D03*
%TD*%
D20*
%TO.N,GND*%
X36825000Y21444000D03*
X41397000Y20428000D03*
X40254000Y21952000D03*
X42794000Y22714000D03*
X44445000Y25381000D03*
X45207000Y22206000D03*
X53589000Y27794000D03*
X53589000Y26524000D03*
X53589000Y25381000D03*
X49525000Y25381000D03*
X51430000Y25381000D03*
%TO.N,GNDA*%
X30094000Y33382000D03*
X26030000Y45320000D03*
X61590000Y38081000D03*
X21712000Y33509000D03*
X55621000Y38081000D03*
X17648000Y37954000D03*
X55875000Y45066000D03*
X49525000Y38081000D03*
X30983000Y36303000D03*
X74417000Y33128000D03*
X55621000Y33890000D03*
X30094000Y35160000D03*
X46350000Y41764000D03*
X37587000Y38081000D03*
X17648000Y40367000D03*
X35174000Y36303000D03*
X74417000Y23603000D03*
X19172000Y47733000D03*
X64511000Y24365000D03*
X29427000Y47409636D03*
X45969000Y47098000D03*
X17775000Y34144000D03*
X17648000Y43923000D03*
X26919000Y33382000D03*
X61590000Y34525000D03*
%TO.N,+5V*%
X41778000Y43669000D03*
D21*
X41778000Y37827000D03*
D20*
%TO.N,GND*%
X26665000Y24365000D03*
X39746000Y5061000D03*
X57272000Y26778000D03*
X33269000Y41002000D03*
X13584000Y37700000D03*
X39746000Y16745000D03*
X20950000Y17126000D03*
X40762000Y31350000D03*
X32380000Y31350000D03*
X22347000Y7855000D03*
X7234000Y33636000D03*
X64384000Y17634000D03*
X7361000Y37700000D03*
X2281000Y33255000D03*
X46096000Y27032000D03*
X26919000Y15475000D03*
X36571000Y24619000D03*
X13457000Y40748000D03*
X37841000Y25635000D03*
X58161000Y11792000D03*
X18537000Y18777000D03*
X58415000Y27413000D03*
X9139000Y40113000D03*
X45461000Y15602000D03*
X48128000Y25381000D03*
X52700000Y31350000D03*
X22347000Y3537000D03*
X36698000Y26778000D03*
X11425000Y21063000D03*
X20950000Y18904000D03*
X11933000Y17507000D03*
X57272000Y28937000D03*
X39746000Y11792000D03*
X11044000Y26270000D03*
X36444000Y29953000D03*
X4567000Y35668000D03*
X11171000Y3664000D03*
X48890000Y31350000D03*
X16378000Y3537000D03*
X57272000Y25635000D03*
X6980000Y32493000D03*
X11044000Y13443000D03*
X57272000Y27921000D03*
X16632000Y26270000D03*
X68829000Y42653000D03*
X11425000Y37573000D03*
X64003000Y42653000D03*
X33269000Y37954000D03*
X24125000Y21698000D03*
X44318000Y31350000D03*
X40127000Y25762000D03*
X5075000Y30969000D03*
D21*
%TO.N,+2V5*%
X20442000Y35033000D03*
D20*
X18664000Y40367000D03*
%TO.N,-5V*%
X56129000Y42018000D03*
%TO.N,Net-(R103-Pad1)*%
X25649000Y39224000D03*
X25649000Y43034000D03*
%TO.N,VEE*%
X40546375Y41891000D03*
X40546375Y44558000D03*
%TD*%
D22*
%TO.N,+5V*%
X41778000Y37827000D02*
X41778000Y43669000D01*
%TO.N,+2V5*%
X18664000Y36811000D02*
X20442000Y35033000D01*
X18664000Y40367000D02*
X18664000Y36811000D01*
%TO.N,-5V*%
X56129000Y42780000D02*
X53858000Y45051000D01*
X56129000Y42018000D02*
X56129000Y42780000D01*
X53858000Y45051000D02*
X53858000Y45066000D01*
D23*
%TO.N,Net-(R103-Pad1)*%
X25649000Y39224000D02*
X25649000Y43034000D01*
D22*
%TO.N,VEE*%
X40546375Y44558000D02*
X40546375Y41891000D01*
X40546375Y42336875D02*
X40546375Y41891000D01*
%TD*%
%TA.AperFunction,Conductor*%
%TO.N,GND*%
G36*
X1660312Y49471998D02*
G01*
X1706805Y49418342D01*
X1716909Y49348068D01*
X1687415Y49283488D01*
X1670197Y49267050D01*
X1364419Y49025994D01*
X1361180Y49023169D01*
X1353487Y49009674D01*
X1353552Y49008450D01*
X1358304Y49000906D01*
X3987188Y46372022D01*
X4001132Y46364408D01*
X4002965Y46364539D01*
X4009580Y46368790D01*
X6636011Y48995221D01*
X6643574Y49009071D01*
X6637247Y49018293D01*
X6511451Y49129783D01*
X6506554Y49133706D01*
X6326408Y49263870D01*
X6282907Y49319979D01*
X6276646Y49390699D01*
X6309614Y49453577D01*
X6371342Y49488650D01*
X6400202Y49492000D01*
X73592191Y49492000D01*
X73660312Y49471998D01*
X73706805Y49418342D01*
X73716909Y49348068D01*
X73687415Y49283488D01*
X73670197Y49267050D01*
X73364419Y49025994D01*
X73361180Y49023169D01*
X73353487Y49009674D01*
X73353552Y49008450D01*
X73358304Y49000906D01*
X75987188Y46372022D01*
X76001132Y46364408D01*
X76002965Y46364539D01*
X76009580Y46368790D01*
X78636011Y48995221D01*
X78643574Y49009071D01*
X78637247Y49018293D01*
X78511451Y49129783D01*
X78506554Y49133706D01*
X78326408Y49263870D01*
X78282907Y49319979D01*
X78276646Y49390699D01*
X78309614Y49453577D01*
X78371342Y49488650D01*
X78400202Y49492000D01*
X79366000Y49492000D01*
X79434121Y49471998D01*
X79480614Y49418342D01*
X79492000Y49366000D01*
X79492000Y48402605D01*
X79471998Y48334484D01*
X79418342Y48287991D01*
X79348068Y48277887D01*
X79283488Y48307381D01*
X79265438Y48326689D01*
X79080520Y48571638D01*
X79076508Y48576437D01*
X79021144Y48636330D01*
X79007510Y48644486D01*
X79006993Y48644469D01*
X78998379Y48639169D01*
X76372022Y46012812D01*
X76364408Y45998868D01*
X76364539Y45997035D01*
X76368790Y45990420D01*
X78997457Y43361753D01*
X79011401Y43354139D01*
X79012445Y43354213D01*
X79020138Y43359287D01*
X79035654Y43375552D01*
X79039753Y43380300D01*
X79266643Y43671229D01*
X79324308Y43712644D01*
X79395210Y43716309D01*
X79456838Y43681060D01*
X79489626Y43618088D01*
X79492000Y43593742D01*
X79492000Y42127755D01*
X79471998Y42059634D01*
X79418342Y42013141D01*
X79348068Y42003038D01*
X79248459Y42017360D01*
X79248444Y42017361D01*
X79244000Y42018000D01*
X77499681Y42018000D01*
X77431560Y42038002D01*
X77385067Y42091658D01*
X77374963Y42161932D01*
X77404457Y42226512D01*
X77449338Y42259506D01*
X77781451Y42404258D01*
X77787059Y42407042D01*
X78129760Y42598964D01*
X78135077Y42602300D01*
X78457016Y42827305D01*
X78461984Y42831159D01*
X78635284Y42979958D01*
X78643708Y42992936D01*
X78637735Y43003055D01*
X76012812Y45627978D01*
X75998868Y45635592D01*
X75997035Y45635461D01*
X75990420Y45631210D01*
X73361872Y43002662D01*
X73354706Y42989539D01*
X73362096Y42979237D01*
X73621825Y42767785D01*
X73626866Y42764083D01*
X73954594Y42547575D01*
X73959996Y42544380D01*
X74307612Y42361490D01*
X74313285Y42358857D01*
X74555416Y42260784D01*
X74611045Y42216672D01*
X74633995Y42149486D01*
X74616978Y42080559D01*
X74565397Y42031774D01*
X74508114Y42018000D01*
X57155951Y42018000D01*
X57087830Y42038002D01*
X57041337Y42091658D01*
X57030641Y42130830D01*
X57023228Y42201362D01*
X57022538Y42207927D01*
X57016500Y42226512D01*
X56973498Y42358857D01*
X56963524Y42389554D01*
X56954381Y42405390D01*
X56937500Y42468390D01*
X56937500Y42781776D01*
X56937507Y42783095D01*
X56938261Y42855161D01*
X56938335Y42862209D01*
X56929177Y42904566D01*
X56927116Y42917149D01*
X56923069Y42953232D01*
X56923069Y42953233D01*
X56922284Y42960230D01*
X56911256Y42991897D01*
X56907098Y43006694D01*
X56901500Y43032587D01*
X56901497Y43032595D01*
X56900010Y43039474D01*
X56881691Y43078758D01*
X56876894Y43090572D01*
X56864958Y43124849D01*
X56864957Y43124851D01*
X56862641Y43131502D01*
X56844866Y43159948D01*
X56837535Y43173450D01*
X56823363Y43203841D01*
X56807640Y43224111D01*
X56781694Y43290196D01*
X56795594Y43359819D01*
X56818105Y43390432D01*
X56819273Y43391600D01*
X56822666Y43394540D01*
X56917355Y43503816D01*
X56977421Y43635342D01*
X56993978Y43691730D01*
X56996154Y43699140D01*
X56996155Y43699144D01*
X56997423Y43703463D01*
X56999977Y43721224D01*
X57017361Y43842134D01*
X57017362Y43842141D01*
X57018000Y43846582D01*
X57018000Y45835084D01*
X71990545Y45835084D01*
X71990807Y45828832D01*
X72026747Y45437698D01*
X72027632Y45431477D01*
X72102243Y45045838D01*
X72103736Y45039764D01*
X72216284Y44663429D01*
X72218367Y44657545D01*
X72367741Y44294238D01*
X72370397Y44288593D01*
X72555118Y43941914D01*
X72558324Y43936558D01*
X72776557Y43609949D01*
X72780277Y43604939D01*
X72978879Y43363586D01*
X72991331Y43355129D01*
X73002157Y43361367D01*
X75627978Y45987188D01*
X75635592Y46001132D01*
X75635461Y46002965D01*
X75631210Y46009580D01*
X73004346Y48636444D01*
X72990855Y48643811D01*
X72981085Y48636956D01*
X72818307Y48445355D01*
X72814490Y48440380D01*
X72591158Y48117246D01*
X72587865Y48111934D01*
X72397736Y47768225D01*
X72394977Y47762596D01*
X72239919Y47401688D01*
X72237744Y47395839D01*
X72119302Y47021324D01*
X72117711Y47015262D01*
X72037051Y46630841D01*
X72036071Y46624654D01*
X71993989Y46234113D01*
X71993629Y46227874D01*
X71990545Y45835084D01*
X57018000Y45835084D01*
X57018000Y48369000D01*
X57006391Y48476980D01*
X56995005Y48529322D01*
X56960707Y48632372D01*
X56882535Y48754010D01*
X56836042Y48807666D01*
X56817213Y48823982D01*
X56809214Y48830913D01*
X56726766Y48902355D01*
X56595240Y48962421D01*
X56571486Y48969396D01*
X56531442Y48981154D01*
X56531438Y48981155D01*
X56527119Y48982423D01*
X56522671Y48983063D01*
X56522664Y48983064D01*
X56388448Y49002361D01*
X56388441Y49002362D01*
X56384000Y49003000D01*
X17266000Y49003000D01*
X17158020Y48991391D01*
X17154736Y48990677D01*
X17154732Y48990676D01*
X17129661Y48985222D01*
X17105678Y48980005D01*
X17002628Y48945707D01*
X16880990Y48867535D01*
X16827334Y48821042D01*
X16824393Y48817648D01*
X16812803Y48804273D01*
X16732645Y48711766D01*
X16672579Y48580240D01*
X16652577Y48512119D01*
X16651937Y48507671D01*
X16651936Y48507664D01*
X16632639Y48373448D01*
X16632638Y48373441D01*
X16632000Y48369000D01*
X16632000Y32746000D01*
X16643609Y32638020D01*
X16654995Y32585678D01*
X16689293Y32482628D01*
X16767465Y32360990D01*
X16813958Y32307334D01*
X16923234Y32212645D01*
X17054760Y32152579D01*
X17078514Y32145604D01*
X17118558Y32133846D01*
X17118562Y32133845D01*
X17122881Y32132577D01*
X17127329Y32131937D01*
X17127336Y32131936D01*
X17261552Y32112639D01*
X17261559Y32112638D01*
X17266000Y32112000D01*
X31482741Y32112000D01*
X31550862Y32091998D01*
X31597355Y32038342D01*
X31607459Y31968068D01*
X31577965Y31903488D01*
X31553563Y31881788D01*
X31523215Y31861164D01*
X31514891Y31851043D01*
X31522081Y31837129D01*
X32367188Y30992022D01*
X32381132Y30984408D01*
X32382965Y30984539D01*
X32389580Y30988790D01*
X33241493Y31840703D01*
X33248701Y31853904D01*
X33242495Y31862597D01*
X33239115Y31864946D01*
X33218230Y31877101D01*
X33169416Y31928654D01*
X33156223Y31998414D01*
X33182839Y32064233D01*
X33240814Y32105213D01*
X33281610Y32112000D01*
X62226000Y32112000D01*
X62294121Y32091998D01*
X62340614Y32038342D01*
X62352000Y31986000D01*
X62352000Y25052190D01*
X62354910Y24997896D01*
X62355090Y24996225D01*
X62355091Y24996208D01*
X62357608Y24972793D01*
X62357789Y24971113D01*
X62358058Y24969455D01*
X62363400Y24936488D01*
X62366490Y24917417D01*
X62417021Y24781943D01*
X62419174Y24778000D01*
X62419175Y24777998D01*
X62448891Y24723579D01*
X62451047Y24719631D01*
X62453742Y24716031D01*
X62534998Y24607487D01*
X62535002Y24607483D01*
X62537695Y24603885D01*
X72623885Y14517695D01*
X72664328Y14481365D01*
X72685302Y14464462D01*
X72686676Y14463471D01*
X72686692Y14463459D01*
X72706892Y14448893D01*
X72729424Y14432645D01*
X72735050Y14430075D01*
X72735053Y14430074D01*
X72804045Y14398567D01*
X72860950Y14372579D01*
X72884704Y14365604D01*
X72924748Y14353846D01*
X72924752Y14353845D01*
X72929071Y14352577D01*
X72933519Y14351937D01*
X72933526Y14351936D01*
X73067742Y14332639D01*
X73067749Y14332638D01*
X73072190Y14332000D01*
X79244000Y14332000D01*
X79351980Y14343609D01*
X79352151Y14342021D01*
X79416347Y14333924D01*
X79470801Y14288369D01*
X79492000Y14218420D01*
X79492000Y6402605D01*
X79471998Y6334484D01*
X79418342Y6287991D01*
X79348068Y6277887D01*
X79283488Y6307381D01*
X79265438Y6326689D01*
X79080520Y6571638D01*
X79076508Y6576437D01*
X79021144Y6636330D01*
X79007510Y6644486D01*
X79006993Y6644469D01*
X78998379Y6639169D01*
X76372022Y4012812D01*
X76364408Y3998868D01*
X76364539Y3997035D01*
X76368790Y3990420D01*
X78997457Y1361753D01*
X79011401Y1354139D01*
X79012445Y1354213D01*
X79020138Y1359287D01*
X79035654Y1375552D01*
X79039753Y1380300D01*
X79266643Y1671229D01*
X79324308Y1712644D01*
X79395210Y1716309D01*
X79456838Y1681060D01*
X79489626Y1618088D01*
X79492000Y1593742D01*
X79492000Y634000D01*
X79471998Y565879D01*
X79418342Y519386D01*
X79366000Y508000D01*
X78400382Y508000D01*
X78332261Y528002D01*
X78285768Y581658D01*
X78275664Y651932D01*
X78305158Y716512D01*
X78328202Y737276D01*
X78457016Y827305D01*
X78461984Y831159D01*
X78635284Y979958D01*
X78643708Y992936D01*
X78637735Y1003055D01*
X76012812Y3627978D01*
X75998868Y3635592D01*
X75997035Y3635461D01*
X75990420Y3631210D01*
X73361872Y1002662D01*
X73354706Y989539D01*
X73362096Y979237D01*
X73621825Y767785D01*
X73626852Y764093D01*
X73664637Y739131D01*
X73710450Y684893D01*
X73719666Y614497D01*
X73689361Y550293D01*
X73629156Y512666D01*
X73595185Y508000D01*
X6400382Y508000D01*
X6332261Y528002D01*
X6285768Y581658D01*
X6275664Y651932D01*
X6305158Y716512D01*
X6328202Y737276D01*
X6457016Y827305D01*
X6461984Y831159D01*
X6635284Y979958D01*
X6643708Y992936D01*
X6637735Y1003055D01*
X4012812Y3627978D01*
X3998868Y3635592D01*
X3997035Y3635461D01*
X3990420Y3631210D01*
X1361872Y1002662D01*
X1354706Y989539D01*
X1362096Y979237D01*
X1621825Y767785D01*
X1626852Y764093D01*
X1664637Y739131D01*
X1710450Y684893D01*
X1719666Y614497D01*
X1689361Y550293D01*
X1629156Y512666D01*
X1595185Y508000D01*
X634000Y508000D01*
X565879Y528002D01*
X519386Y581658D01*
X508000Y634000D01*
X508000Y1596506D01*
X528002Y1664627D01*
X581658Y1711120D01*
X651932Y1721224D01*
X716512Y1691730D01*
X738765Y1666508D01*
X776556Y1609949D01*
X780277Y1604939D01*
X978879Y1363586D01*
X991331Y1355129D01*
X1002157Y1361367D01*
X3627978Y3987188D01*
X3634356Y3998868D01*
X4364408Y3998868D01*
X4364539Y3997035D01*
X4368790Y3990420D01*
X6997457Y1361753D01*
X7011401Y1354139D01*
X7012445Y1354213D01*
X7020138Y1359287D01*
X7035654Y1375552D01*
X7039753Y1380300D01*
X7281309Y1690035D01*
X7284907Y1695154D01*
X7494512Y2027358D01*
X7497578Y2032799D01*
X7673151Y2384175D01*
X7675672Y2389921D01*
X7768609Y2633936D01*
X12883490Y2633936D01*
X12892787Y2621920D01*
X12943995Y2586064D01*
X12953481Y2580586D01*
X13150943Y2488509D01*
X13161239Y2484761D01*
X13371690Y2428370D01*
X13382477Y2426468D01*
X13599525Y2407479D01*
X13610475Y2407479D01*
X13827523Y2426468D01*
X13838310Y2428370D01*
X14048761Y2484761D01*
X14059057Y2488509D01*
X14256519Y2580586D01*
X14266005Y2586064D01*
X14318051Y2622506D01*
X14326426Y2632984D01*
X14319358Y2646432D01*
X13617812Y3347978D01*
X13603868Y3355592D01*
X13602035Y3355461D01*
X13595420Y3351210D01*
X12889920Y2645710D01*
X12883490Y2633936D01*
X7768609Y2633936D01*
X7815478Y2756996D01*
X7817406Y2762928D01*
X7920066Y3142089D01*
X7921398Y3148197D01*
X7985891Y3535668D01*
X7986610Y3541884D01*
X7998643Y3725475D01*
X12292479Y3725475D01*
X12292479Y3714525D01*
X12311468Y3497477D01*
X12313370Y3486690D01*
X12369761Y3276239D01*
X12373509Y3265943D01*
X12465586Y3068481D01*
X12471064Y3058995D01*
X12507506Y3006949D01*
X12517984Y2998574D01*
X12531432Y3005642D01*
X13232978Y3707188D01*
X13239356Y3718868D01*
X13969408Y3718868D01*
X13969539Y3717035D01*
X13973790Y3710420D01*
X14679290Y3004920D01*
X14691064Y2998490D01*
X14703080Y3007787D01*
X14738936Y3058995D01*
X14744414Y3068481D01*
X14836491Y3265943D01*
X14840239Y3276239D01*
X14896630Y3486690D01*
X14898532Y3497477D01*
X14917521Y3714525D01*
X14917521Y3725475D01*
X14898532Y3942523D01*
X14896630Y3953310D01*
X14840239Y4163761D01*
X14836491Y4174057D01*
X14744414Y4371519D01*
X14738936Y4381005D01*
X14702494Y4433051D01*
X14692016Y4441426D01*
X14678568Y4434358D01*
X13977022Y3732812D01*
X13969408Y3718868D01*
X13239356Y3718868D01*
X13240592Y3721132D01*
X13240461Y3722965D01*
X13236210Y3729580D01*
X12530710Y4435080D01*
X12518936Y4441510D01*
X12506920Y4432213D01*
X12471064Y4381005D01*
X12465586Y4371519D01*
X12373509Y4174057D01*
X12369761Y4163761D01*
X12313370Y3953310D01*
X12311468Y3942523D01*
X12292479Y3725475D01*
X7998643Y3725475D01*
X8012387Y3935160D01*
X8012519Y3938776D01*
X8012986Y3998193D01*
X8012910Y4001805D01*
X7993313Y4395448D01*
X7992694Y4401657D01*
X7934293Y4790106D01*
X7933057Y4796235D01*
X7930319Y4807016D01*
X12883574Y4807016D01*
X12890642Y4793568D01*
X13592188Y4092022D01*
X13606132Y4084408D01*
X13607965Y4084539D01*
X13614580Y4088790D01*
X14320080Y4794290D01*
X14326510Y4806064D01*
X14317213Y4818080D01*
X14266005Y4853936D01*
X14256519Y4859414D01*
X14059057Y4951491D01*
X14048761Y4955239D01*
X13838310Y5011630D01*
X13827523Y5013532D01*
X13610475Y5032521D01*
X13599525Y5032521D01*
X13382477Y5013532D01*
X13371690Y5011630D01*
X13161239Y4955239D01*
X13150943Y4951491D01*
X12953481Y4859414D01*
X12943995Y4853936D01*
X12891949Y4817494D01*
X12883574Y4807016D01*
X7930319Y4807016D01*
X7836370Y5176941D01*
X7834527Y5182932D01*
X7700503Y5552162D01*
X7698082Y5557921D01*
X7528050Y5912011D01*
X7525064Y5917512D01*
X7320709Y6252957D01*
X7317179Y6258151D01*
X7080520Y6571638D01*
X7076508Y6576437D01*
X7021144Y6636330D01*
X7007510Y6644486D01*
X7006993Y6644469D01*
X6998379Y6639169D01*
X4372022Y4012812D01*
X4364408Y3998868D01*
X3634356Y3998868D01*
X3635592Y4001132D01*
X3635461Y4002965D01*
X3631210Y4009580D01*
X1004346Y6636444D01*
X990855Y6643811D01*
X981085Y6636956D01*
X818307Y6445355D01*
X814490Y6440380D01*
X737653Y6329206D01*
X682468Y6284540D01*
X611894Y6276799D01*
X548339Y6308442D01*
X511981Y6369423D01*
X508000Y6400845D01*
X508000Y7009674D01*
X1353487Y7009674D01*
X1353552Y7008450D01*
X1358304Y7000906D01*
X3987188Y4372022D01*
X4001132Y4364408D01*
X4002965Y4364539D01*
X4009580Y4368790D01*
X6636011Y6995221D01*
X6643574Y7009071D01*
X6637247Y7018293D01*
X6511451Y7129783D01*
X6506554Y7133706D01*
X6188168Y7363755D01*
X6182935Y7367154D01*
X5843270Y7564447D01*
X5837707Y7567319D01*
X5480141Y7729894D01*
X5474307Y7732204D01*
X5102365Y7858461D01*
X5096350Y7860175D01*
X4713683Y7948872D01*
X4707545Y7949976D01*
X4317966Y8000228D01*
X4311721Y8000719D01*
X3919084Y8012030D01*
X3912832Y8011899D01*
X3521027Y7984157D01*
X3514796Y7983403D01*
X3127676Y7916884D01*
X3121576Y7915521D01*
X2742959Y7810876D01*
X2737036Y7808918D01*
X2370686Y7667188D01*
X2364968Y7664642D01*
X2014527Y7487237D01*
X2009073Y7484126D01*
X1677988Y7272795D01*
X1672887Y7269170D01*
X1364419Y7025994D01*
X1361180Y7023169D01*
X1353487Y7009674D01*
X508000Y7009674D01*
X508000Y8020000D01*
X12291500Y8020000D01*
X12291500Y6420000D01*
X12296727Y6346921D01*
X12337904Y6206684D01*
X12342775Y6199105D01*
X12412051Y6091309D01*
X12412053Y6091306D01*
X12416923Y6083729D01*
X12423733Y6077828D01*
X12520569Y5993918D01*
X12520572Y5993916D01*
X12527381Y5988016D01*
X12660330Y5927300D01*
X12669245Y5926018D01*
X12669246Y5926018D01*
X12800552Y5907139D01*
X12800559Y5907138D01*
X12805000Y5906500D01*
X14405000Y5906500D01*
X14478079Y5911727D01*
X14556165Y5934655D01*
X14609670Y5950365D01*
X14609672Y5950366D01*
X14618316Y5952904D01*
X14682135Y5993918D01*
X14733691Y6027051D01*
X14733694Y6027053D01*
X14741271Y6031923D01*
X14760826Y6054490D01*
X14831082Y6135569D01*
X14831084Y6135572D01*
X14836984Y6142381D01*
X14897700Y6275330D01*
X14908962Y6353660D01*
X14917861Y6415552D01*
X14917862Y6415559D01*
X14918500Y6420000D01*
X14918500Y7454231D01*
X24886406Y7454231D01*
X24886406Y6985769D01*
X24886625Y6983166D01*
X24886626Y6983147D01*
X24925379Y6521648D01*
X24925606Y6518949D01*
X25003731Y6057046D01*
X25004386Y6054496D01*
X25004387Y6054490D01*
X25077888Y5768225D01*
X25120233Y5603301D01*
X25274295Y5160895D01*
X25464836Y4732933D01*
X25690520Y4322416D01*
X25949763Y3932223D01*
X26240748Y3565092D01*
X26561433Y3223597D01*
X26909569Y2910134D01*
X27282714Y2626902D01*
X27284945Y2625486D01*
X27284951Y2625482D01*
X27488426Y2496353D01*
X27678250Y2375887D01*
X27680577Y2374671D01*
X27680583Y2374667D01*
X28091066Y2160072D01*
X28091071Y2160070D01*
X28093404Y2158850D01*
X28525262Y1977313D01*
X28527770Y1976498D01*
X28527773Y1976497D01*
X28968282Y1833367D01*
X28968286Y1833366D01*
X28970797Y1832550D01*
X29216180Y1774996D01*
X29424315Y1726178D01*
X29424322Y1726177D01*
X29426883Y1725576D01*
X29890320Y1657142D01*
X29892961Y1656976D01*
X29892969Y1656975D01*
X30144994Y1641119D01*
X30357859Y1627727D01*
X30360491Y1627782D01*
X30360498Y1627782D01*
X30537964Y1631499D01*
X30826219Y1637537D01*
X31292115Y1686505D01*
X31752281Y1774286D01*
X31754813Y1774993D01*
X31754826Y1774996D01*
X32200949Y1899556D01*
X32200957Y1899559D01*
X32203487Y1900265D01*
X32339759Y1950944D01*
X32640095Y2062638D01*
X32640101Y2062641D01*
X32642568Y2063558D01*
X33066446Y2263020D01*
X33472147Y2497252D01*
X33856825Y2764610D01*
X34030797Y2908532D01*
X34215758Y3061544D01*
X34215766Y3061551D01*
X34217782Y3063219D01*
X34247043Y3091874D01*
X45762414Y3091874D01*
X45762419Y3091799D01*
X45768525Y3082823D01*
X45957927Y2912285D01*
X45961987Y2908926D01*
X46330891Y2628912D01*
X46335242Y2625888D01*
X46726272Y2377734D01*
X46730833Y2375100D01*
X47141278Y2160524D01*
X47146048Y2158280D01*
X47573008Y1978803D01*
X47577948Y1976966D01*
X48018416Y1833849D01*
X48023504Y1832429D01*
X48474408Y1726669D01*
X48479590Y1725681D01*
X48937748Y1658027D01*
X48943020Y1657472D01*
X49405234Y1628393D01*
X49410508Y1628282D01*
X49873538Y1637982D01*
X49878815Y1638313D01*
X50339410Y1686723D01*
X50344645Y1687497D01*
X50799574Y1774279D01*
X50804711Y1775483D01*
X51250794Y1900032D01*
X51255792Y1901656D01*
X51689902Y2063099D01*
X51694769Y2065146D01*
X52113828Y2262340D01*
X52118499Y2264782D01*
X52519591Y2496353D01*
X52524044Y2499179D01*
X52904353Y2763500D01*
X52908556Y2766690D01*
X53265421Y3061915D01*
X53269326Y3065431D01*
X53282168Y3078006D01*
X53289925Y3091865D01*
X53289834Y3093349D01*
X53285294Y3100496D01*
X49537812Y6847978D01*
X49523868Y6855592D01*
X49522035Y6855461D01*
X49515420Y6851210D01*
X45770028Y3105818D01*
X45762414Y3091874D01*
X34247043Y3091874D01*
X34552486Y3390986D01*
X34615154Y3463587D01*
X34856854Y3743600D01*
X34858589Y3745610D01*
X35133945Y4124604D01*
X35135479Y4127136D01*
X35281829Y4368790D01*
X35376621Y4525311D01*
X35584917Y4944919D01*
X35757369Y5380484D01*
X35892770Y5828953D01*
X35909288Y5906661D01*
X35988194Y6277887D01*
X35990169Y6287179D01*
X36048883Y6751948D01*
X36053222Y6855461D01*
X36068389Y7217352D01*
X36068500Y7220000D01*
X36062475Y7363755D01*
X36058794Y7451581D01*
X43936906Y7451581D01*
X43936906Y6988419D01*
X43937126Y6983166D01*
X43975881Y6521648D01*
X43976544Y6516398D01*
X44053776Y6059773D01*
X44054882Y6054573D01*
X44170054Y5606006D01*
X44171582Y5600948D01*
X44323892Y5163572D01*
X44325830Y5158676D01*
X44514211Y4735565D01*
X44516555Y4730844D01*
X44739684Y4324975D01*
X44742404Y4320483D01*
X44998711Y3934711D01*
X45001803Y3930455D01*
X45289480Y3567497D01*
X45292941Y3563487D01*
X45385308Y3465126D01*
X45399004Y3457079D01*
X45399786Y3457111D01*
X45407998Y3462208D01*
X49152978Y7207188D01*
X49159356Y7218868D01*
X49889408Y7218868D01*
X49889539Y7217035D01*
X49893790Y7210420D01*
X53640623Y3463587D01*
X53654250Y3456146D01*
X53663815Y3462800D01*
X53906463Y3743911D01*
X53909757Y3748065D01*
X53972980Y3835084D01*
X71990545Y3835084D01*
X71990807Y3828832D01*
X72026747Y3437698D01*
X72027632Y3431477D01*
X72102243Y3045838D01*
X72103736Y3039764D01*
X72216284Y2663429D01*
X72218367Y2657545D01*
X72367741Y2294238D01*
X72370397Y2288593D01*
X72555118Y1941914D01*
X72558324Y1936558D01*
X72776557Y1609949D01*
X72780277Y1604939D01*
X72978879Y1363586D01*
X72991331Y1355129D01*
X73002157Y1361367D01*
X75627978Y3987188D01*
X75635592Y4001132D01*
X75635461Y4002965D01*
X75631210Y4009580D01*
X73004346Y6636444D01*
X72990855Y6643811D01*
X72981085Y6636956D01*
X72818307Y6445355D01*
X72814490Y6440380D01*
X72591158Y6117246D01*
X72587865Y6111934D01*
X72397736Y5768225D01*
X72394977Y5762596D01*
X72239919Y5401688D01*
X72237744Y5395839D01*
X72119302Y5021324D01*
X72117711Y5015262D01*
X72037051Y4630841D01*
X72036071Y4624654D01*
X71993989Y4234113D01*
X71993629Y4227874D01*
X71990545Y3835084D01*
X53972980Y3835084D01*
X54181979Y4122749D01*
X54184894Y4127136D01*
X54424809Y4523284D01*
X54427360Y4527923D01*
X54633286Y4942757D01*
X54635432Y4947577D01*
X54805928Y5378203D01*
X54807659Y5383173D01*
X54941525Y5826557D01*
X54942832Y5831644D01*
X55039129Y6284689D01*
X55040007Y6289882D01*
X55098053Y6749364D01*
X55098496Y6754635D01*
X55109185Y7009674D01*
X73353487Y7009674D01*
X73353552Y7008450D01*
X73358304Y7000906D01*
X75987188Y4372022D01*
X76001132Y4364408D01*
X76002965Y4364539D01*
X76009580Y4368790D01*
X78636011Y6995221D01*
X78643574Y7009071D01*
X78637247Y7018293D01*
X78511451Y7129783D01*
X78506554Y7133706D01*
X78188168Y7363755D01*
X78182935Y7367154D01*
X77843270Y7564447D01*
X77837707Y7567319D01*
X77480141Y7729894D01*
X77474307Y7732204D01*
X77102365Y7858461D01*
X77096350Y7860175D01*
X76713683Y7948872D01*
X76707545Y7949976D01*
X76317966Y8000228D01*
X76311721Y8000719D01*
X75919084Y8012030D01*
X75912832Y8011899D01*
X75521027Y7984157D01*
X75514796Y7983403D01*
X75127676Y7916884D01*
X75121576Y7915521D01*
X74742959Y7810876D01*
X74737036Y7808918D01*
X74370686Y7667188D01*
X74364968Y7664642D01*
X74014527Y7487237D01*
X74009073Y7484126D01*
X73677988Y7272795D01*
X73672887Y7269170D01*
X73364419Y7025994D01*
X73361180Y7023169D01*
X73353487Y7009674D01*
X55109185Y7009674D01*
X55117889Y7217352D01*
X55117889Y7222648D01*
X55098496Y7685365D01*
X55098053Y7690636D01*
X55040007Y8150118D01*
X55039129Y8155311D01*
X54942832Y8608356D01*
X54941525Y8613443D01*
X54807659Y9056827D01*
X54805928Y9061797D01*
X54635432Y9492423D01*
X54633286Y9497243D01*
X54427360Y9912077D01*
X54424809Y9916716D01*
X54184894Y10312864D01*
X54181979Y10317251D01*
X53909757Y10691935D01*
X53906463Y10696089D01*
X53665272Y10975511D01*
X53652230Y10983928D01*
X53642199Y10977989D01*
X49897022Y7232812D01*
X49889408Y7218868D01*
X49159356Y7218868D01*
X49160592Y7221132D01*
X49160461Y7222965D01*
X49156210Y7229580D01*
X45410522Y10975268D01*
X45396578Y10982882D01*
X45395798Y10982827D01*
X45387751Y10977475D01*
X45292941Y10876513D01*
X45289480Y10872503D01*
X45001803Y10509545D01*
X44998711Y10505289D01*
X44742404Y10119517D01*
X44739684Y10115025D01*
X44516555Y9709156D01*
X44514211Y9704435D01*
X44325830Y9281324D01*
X44323892Y9276428D01*
X44171582Y8839052D01*
X44170054Y8833994D01*
X44054882Y8385427D01*
X44053776Y8380227D01*
X43976544Y7923602D01*
X43975881Y7918352D01*
X43937126Y7456834D01*
X43936906Y7451581D01*
X36058794Y7451581D01*
X36048994Y7685407D01*
X36048994Y7685410D01*
X36048883Y7688052D01*
X35990169Y8152821D01*
X35941832Y8380227D01*
X35893316Y8608480D01*
X35893314Y8608488D01*
X35892770Y8611047D01*
X35757369Y9059516D01*
X35584917Y9495081D01*
X35376621Y9914689D01*
X35235821Y10147178D01*
X35135311Y10313141D01*
X35135307Y10313147D01*
X35133945Y10315396D01*
X34858589Y10694390D01*
X34552486Y11049014D01*
X34249630Y11345593D01*
X45762348Y11345593D01*
X45762349Y11345516D01*
X45767978Y11336232D01*
X49512188Y7592022D01*
X49526132Y7584408D01*
X49527965Y7584539D01*
X49534580Y7588790D01*
X53282298Y11336508D01*
X53289912Y11350452D01*
X53289806Y11351936D01*
X53285195Y11359029D01*
X53269326Y11374569D01*
X53265421Y11378085D01*
X52908556Y11673310D01*
X52904353Y11676500D01*
X52524044Y11940821D01*
X52519591Y11943647D01*
X52118499Y12175218D01*
X52113828Y12177660D01*
X51694769Y12374854D01*
X51689902Y12376901D01*
X51255792Y12538344D01*
X51250794Y12539968D01*
X50804711Y12664517D01*
X50799574Y12665721D01*
X50344645Y12752503D01*
X50339410Y12753277D01*
X49878815Y12801687D01*
X49873538Y12802018D01*
X49410508Y12811718D01*
X49405234Y12811607D01*
X48943020Y12782528D01*
X48937748Y12781973D01*
X48479590Y12714319D01*
X48474408Y12713331D01*
X48023504Y12607571D01*
X48018416Y12606151D01*
X47577948Y12463034D01*
X47573008Y12461197D01*
X47146048Y12281720D01*
X47141278Y12279476D01*
X46730833Y12064900D01*
X46726272Y12062266D01*
X46335242Y11814112D01*
X46330891Y11811088D01*
X45961987Y11531074D01*
X45957927Y11527715D01*
X45770679Y11359116D01*
X45762348Y11345593D01*
X34249630Y11345593D01*
X34217782Y11376781D01*
X34215766Y11378449D01*
X34215758Y11378456D01*
X33859339Y11673310D01*
X33856825Y11675390D01*
X33472147Y11942748D01*
X33066446Y12176980D01*
X32642568Y12376442D01*
X32640101Y12377359D01*
X32640095Y12377362D01*
X32205947Y12538820D01*
X32203487Y12539735D01*
X32200957Y12540441D01*
X32200949Y12540444D01*
X31754826Y12665004D01*
X31754813Y12665007D01*
X31752281Y12665714D01*
X31292115Y12753495D01*
X30826219Y12802463D01*
X30537964Y12808501D01*
X30360498Y12812218D01*
X30360491Y12812218D01*
X30357859Y12812273D01*
X30144994Y12798881D01*
X29892969Y12783025D01*
X29892961Y12783024D01*
X29890320Y12782858D01*
X29426883Y12714424D01*
X29424322Y12713823D01*
X29424315Y12713822D01*
X29246891Y12672207D01*
X28970797Y12607450D01*
X28968286Y12606634D01*
X28968282Y12606633D01*
X28759575Y12538820D01*
X28525262Y12462687D01*
X28093404Y12281150D01*
X28091071Y12279930D01*
X28091066Y12279928D01*
X27680583Y12065333D01*
X27680577Y12065329D01*
X27678250Y12064113D01*
X27676022Y12062699D01*
X27284951Y11814518D01*
X27284945Y11814514D01*
X27282714Y11813098D01*
X26909569Y11529866D01*
X26561433Y11216403D01*
X26240748Y10874908D01*
X25949763Y10507777D01*
X25690520Y10117584D01*
X25464836Y9707067D01*
X25274295Y9279105D01*
X25120233Y8836699D01*
X25119578Y8834148D01*
X25119575Y8834138D01*
X25011432Y8412949D01*
X25003731Y8382954D01*
X24925606Y7921051D01*
X24925386Y7918434D01*
X24925386Y7918432D01*
X24889178Y7487237D01*
X24886406Y7454231D01*
X14918500Y7454231D01*
X14918500Y8020000D01*
X14913273Y8093079D01*
X14872096Y8233316D01*
X14826393Y8304431D01*
X14797949Y8348691D01*
X14797947Y8348694D01*
X14793077Y8356271D01*
X14786267Y8362172D01*
X14689431Y8446082D01*
X14689428Y8446084D01*
X14682619Y8451984D01*
X14549670Y8512700D01*
X14540755Y8513982D01*
X14540754Y8513982D01*
X14409448Y8532861D01*
X14409441Y8532862D01*
X14405000Y8533500D01*
X12805000Y8533500D01*
X12731921Y8528273D01*
X12678884Y8512700D01*
X12600330Y8489635D01*
X12600328Y8489634D01*
X12591684Y8487096D01*
X12584105Y8482225D01*
X12476309Y8412949D01*
X12476306Y8412947D01*
X12468729Y8408077D01*
X12462828Y8401267D01*
X12378918Y8304431D01*
X12378916Y8304428D01*
X12373016Y8297619D01*
X12312300Y8164670D01*
X12311018Y8155755D01*
X12311018Y8155754D01*
X12292139Y8024448D01*
X12292138Y8024441D01*
X12291500Y8020000D01*
X508000Y8020000D01*
X508000Y16630952D01*
X55070000Y16630952D01*
X55070000Y16100757D01*
X55070161Y16096250D01*
X55074740Y16032231D01*
X55077126Y16019009D01*
X55113819Y15894042D01*
X55121233Y15877808D01*
X55190426Y15770140D01*
X55202112Y15756653D01*
X55298840Y15672838D01*
X55313848Y15663193D01*
X55430275Y15610023D01*
X55447388Y15604998D01*
X55578554Y15586139D01*
X55587495Y15585500D01*
X56110885Y15585500D01*
X56126124Y15589975D01*
X56127329Y15591365D01*
X56129000Y15599048D01*
X56129000Y16626385D01*
X56127659Y16630952D01*
X56637000Y16630952D01*
X56637000Y15603615D01*
X56641475Y15588376D01*
X56642865Y15587171D01*
X56650548Y15585500D01*
X57180743Y15585500D01*
X57185250Y15585661D01*
X57249269Y15590240D01*
X57262491Y15592626D01*
X57387458Y15629319D01*
X57403692Y15636733D01*
X57511360Y15705926D01*
X57524847Y15717612D01*
X57608662Y15814340D01*
X57618307Y15829348D01*
X57671477Y15945775D01*
X57676502Y15962888D01*
X57695361Y16094054D01*
X57696000Y16102997D01*
X57696000Y16626385D01*
X57691525Y16641624D01*
X57690135Y16642829D01*
X57682452Y16644500D01*
X56655115Y16644500D01*
X56639876Y16640025D01*
X56638671Y16638635D01*
X56637000Y16630952D01*
X56127659Y16630952D01*
X56124525Y16641624D01*
X56123135Y16642829D01*
X56115452Y16644500D01*
X55088115Y16644500D01*
X55072876Y16640025D01*
X55071671Y16638635D01*
X55070000Y16630952D01*
X508000Y16630952D01*
X508000Y17238936D01*
X31277490Y17238936D01*
X31286787Y17226920D01*
X31337995Y17191064D01*
X31347481Y17185586D01*
X31544943Y17093509D01*
X31555239Y17089761D01*
X31765690Y17033370D01*
X31776477Y17031468D01*
X31993525Y17012479D01*
X32004475Y17012479D01*
X32221523Y17031468D01*
X32232310Y17033370D01*
X32442761Y17089761D01*
X32453057Y17093509D01*
X32650519Y17185586D01*
X32660005Y17191064D01*
X32712051Y17227506D01*
X32720426Y17237984D01*
X32713358Y17251432D01*
X32011812Y17952978D01*
X31997868Y17960592D01*
X31996035Y17960461D01*
X31989420Y17956210D01*
X31283920Y17250710D01*
X31277490Y17238936D01*
X508000Y17238936D01*
X508000Y18330475D01*
X30686479Y18330475D01*
X30686479Y18319525D01*
X30705468Y18102477D01*
X30707370Y18091690D01*
X30763761Y17881239D01*
X30767509Y17870943D01*
X30859586Y17673481D01*
X30865064Y17663995D01*
X30901506Y17611949D01*
X30911984Y17603574D01*
X30925432Y17610642D01*
X31626978Y18312188D01*
X31633356Y18323868D01*
X32363408Y18323868D01*
X32363539Y18322035D01*
X32367790Y18315420D01*
X33073290Y17609920D01*
X33085064Y17603490D01*
X33097080Y17612787D01*
X33132936Y17663995D01*
X33138414Y17673481D01*
X33147984Y17694005D01*
X55070000Y17694005D01*
X55070000Y17170615D01*
X55074475Y17155376D01*
X55075865Y17154171D01*
X55083548Y17152500D01*
X56110885Y17152500D01*
X56126124Y17156975D01*
X56127329Y17158365D01*
X56129000Y17166048D01*
X56129000Y18193385D01*
X56127659Y18197952D01*
X56637000Y18197952D01*
X56637000Y17170615D01*
X56641475Y17155376D01*
X56642865Y17154171D01*
X56650548Y17152500D01*
X57677885Y17152500D01*
X57693124Y17156975D01*
X57694329Y17158365D01*
X57696000Y17166048D01*
X57696000Y17696243D01*
X57695839Y17700750D01*
X57691260Y17764769D01*
X57688874Y17777991D01*
X57652181Y17902958D01*
X57644767Y17919192D01*
X57575574Y18026860D01*
X57563888Y18040347D01*
X57467160Y18124162D01*
X57452152Y18133807D01*
X57335725Y18186977D01*
X57318612Y18192002D01*
X57187446Y18210861D01*
X57178505Y18211500D01*
X56655115Y18211500D01*
X56639876Y18207025D01*
X56638671Y18205635D01*
X56637000Y18197952D01*
X56127659Y18197952D01*
X56124525Y18208624D01*
X56123135Y18209829D01*
X56115452Y18211500D01*
X55585257Y18211500D01*
X55580750Y18211339D01*
X55516731Y18206760D01*
X55503509Y18204374D01*
X55378542Y18167681D01*
X55362308Y18160267D01*
X55254640Y18091074D01*
X55241153Y18079388D01*
X55157338Y17982660D01*
X55147693Y17967652D01*
X55094523Y17851225D01*
X55089498Y17834112D01*
X55070639Y17702946D01*
X55070000Y17694005D01*
X33147984Y17694005D01*
X33230491Y17870943D01*
X33234239Y17881239D01*
X33290630Y18091690D01*
X33292532Y18102477D01*
X33311521Y18319525D01*
X33311521Y18330475D01*
X33292532Y18547523D01*
X33290630Y18558310D01*
X33234239Y18768761D01*
X33230491Y18779057D01*
X33138414Y18976519D01*
X33132936Y18986005D01*
X33096494Y19038051D01*
X33086016Y19046426D01*
X33072568Y19039358D01*
X32371022Y18337812D01*
X32363408Y18323868D01*
X31633356Y18323868D01*
X31634592Y18326132D01*
X31634461Y18327965D01*
X31630210Y18334580D01*
X30924710Y19040080D01*
X30912936Y19046510D01*
X30900920Y19037213D01*
X30865064Y18986005D01*
X30859586Y18976519D01*
X30767509Y18779057D01*
X30763761Y18768761D01*
X30707370Y18558310D01*
X30705468Y18547523D01*
X30686479Y18330475D01*
X508000Y18330475D01*
X508000Y19412016D01*
X31277574Y19412016D01*
X31284642Y19398568D01*
X31986188Y18697022D01*
X32000132Y18689408D01*
X32001965Y18689539D01*
X32008580Y18693790D01*
X32714080Y19399290D01*
X32720510Y19411064D01*
X32711213Y19423080D01*
X32660005Y19458936D01*
X32650519Y19464414D01*
X32453057Y19556491D01*
X32442761Y19560239D01*
X32232310Y19616630D01*
X32221523Y19618532D01*
X32004475Y19637521D01*
X31993525Y19637521D01*
X31776477Y19618532D01*
X31765690Y19616630D01*
X31555239Y19560239D01*
X31544943Y19556491D01*
X31347481Y19464414D01*
X31337995Y19458936D01*
X31285949Y19422494D01*
X31277574Y19412016D01*
X508000Y19412016D01*
X508000Y20907577D01*
X949255Y20907577D01*
X957638Y20855529D01*
X960212Y20845207D01*
X1031230Y20637190D01*
X1035497Y20627467D01*
X1140556Y20434375D01*
X1146402Y20425509D01*
X1282486Y20252887D01*
X1289750Y20245125D01*
X1452967Y20097906D01*
X1461444Y20091472D01*
X1647122Y19973864D01*
X1656567Y19968947D01*
X1859406Y19884306D01*
X1869545Y19881050D01*
X2009345Y19848904D01*
X2023422Y19849743D01*
X2027000Y19859001D01*
X2027000Y20907885D01*
X2025659Y20912452D01*
X2535000Y20912452D01*
X2535000Y19860059D01*
X2539151Y19845921D01*
X2549798Y19844226D01*
X2553192Y19844904D01*
X2764333Y19906046D01*
X2774259Y19909857D01*
X2972065Y20005693D01*
X2981212Y20011124D01*
X3160041Y20138917D01*
X3168149Y20145818D01*
X3322893Y20301918D01*
X3329706Y20310067D01*
X3391743Y20398500D01*
X55069500Y20398500D01*
X55089455Y20170413D01*
X55090879Y20165100D01*
X55090879Y20165098D01*
X55142121Y19973864D01*
X55148714Y19949257D01*
X55151036Y19944276D01*
X55151037Y19944275D01*
X55243150Y19746737D01*
X55243153Y19746732D01*
X55245476Y19741750D01*
X55248632Y19737243D01*
X55248633Y19737241D01*
X55333086Y19616630D01*
X55376801Y19554198D01*
X55538698Y19392301D01*
X55543206Y19389144D01*
X55543209Y19389142D01*
X55721741Y19264133D01*
X55726250Y19260976D01*
X55731232Y19258653D01*
X55731237Y19258650D01*
X55928775Y19166537D01*
X55933757Y19164214D01*
X55939065Y19162792D01*
X55939067Y19162791D01*
X56149598Y19106379D01*
X56149600Y19106379D01*
X56154913Y19104955D01*
X56383000Y19085000D01*
X56611087Y19104955D01*
X56616400Y19106379D01*
X56616402Y19106379D01*
X56826933Y19162791D01*
X56826935Y19162792D01*
X56832243Y19164214D01*
X56837225Y19166537D01*
X57034763Y19258650D01*
X57034768Y19258653D01*
X57039750Y19260976D01*
X57044259Y19264133D01*
X57222791Y19389142D01*
X57222794Y19389144D01*
X57227302Y19392301D01*
X57389199Y19554198D01*
X57432915Y19616630D01*
X57517367Y19737241D01*
X57517368Y19737243D01*
X57520524Y19741750D01*
X57522847Y19746732D01*
X57522850Y19746737D01*
X57614963Y19944275D01*
X57614964Y19944276D01*
X57617286Y19949257D01*
X57623880Y19973864D01*
X57675121Y20165098D01*
X57675121Y20165100D01*
X57676545Y20170413D01*
X57696500Y20398500D01*
X57676545Y20626587D01*
X57675081Y20632051D01*
X57618709Y20842433D01*
X57618708Y20842435D01*
X57617286Y20847743D01*
X57613655Y20855529D01*
X57522850Y21050263D01*
X57522847Y21050268D01*
X57520524Y21055250D01*
X57389199Y21242802D01*
X57227302Y21404699D01*
X57222794Y21407856D01*
X57222791Y21407858D01*
X57044259Y21532867D01*
X57044257Y21532868D01*
X57039750Y21536024D01*
X57034768Y21538347D01*
X57034763Y21538350D01*
X56837225Y21630463D01*
X56837224Y21630464D01*
X56832243Y21632786D01*
X56826935Y21634208D01*
X56826933Y21634209D01*
X56616402Y21690621D01*
X56616400Y21690621D01*
X56611087Y21692045D01*
X56383000Y21712000D01*
X56154913Y21692045D01*
X56149600Y21690621D01*
X56149598Y21690621D01*
X55939067Y21634209D01*
X55939065Y21634208D01*
X55933757Y21632786D01*
X55928776Y21630464D01*
X55928775Y21630463D01*
X55731237Y21538350D01*
X55731232Y21538347D01*
X55726250Y21536024D01*
X55721743Y21532868D01*
X55721741Y21532867D01*
X55543209Y21407858D01*
X55543206Y21407856D01*
X55538698Y21404699D01*
X55376801Y21242802D01*
X55245476Y21055250D01*
X55243153Y21050268D01*
X55243150Y21050263D01*
X55152345Y20855529D01*
X55148714Y20847743D01*
X55147292Y20842435D01*
X55147291Y20842433D01*
X55090919Y20632051D01*
X55089455Y20626587D01*
X55069500Y20398500D01*
X3391743Y20398500D01*
X3455940Y20490012D01*
X3461295Y20499213D01*
X3555399Y20697844D01*
X3559123Y20707803D01*
X3616968Y20914282D01*
X3615430Y20922649D01*
X3603137Y20926000D01*
X2553115Y20926000D01*
X2537876Y20921525D01*
X2536671Y20920135D01*
X2535000Y20912452D01*
X2025659Y20912452D01*
X2022525Y20923124D01*
X2021135Y20924329D01*
X2013452Y20926000D01*
X964403Y20926000D01*
X951222Y20922130D01*
X949255Y20907577D01*
X508000Y20907577D01*
X508000Y23617767D01*
X921338Y23617767D01*
X958002Y23390139D01*
X1032494Y23171944D01*
X1035044Y23167257D01*
X1035045Y23167255D01*
X1074557Y23094635D01*
X1142685Y22969420D01*
X1285424Y22788356D01*
X1316025Y22760754D01*
X1452659Y22637511D01*
X1452665Y22637506D01*
X1456629Y22633931D01*
X1461142Y22631072D01*
X1461144Y22631071D01*
X1579712Y22555971D01*
X1626557Y22502623D01*
X1637124Y22432417D01*
X1608057Y22367643D01*
X1577656Y22341808D01*
X1482486Y22284058D01*
X1473896Y22277794D01*
X1307884Y22133736D01*
X1300464Y22126105D01*
X1161100Y21956140D01*
X1155075Y21947373D01*
X1046342Y21756356D01*
X1041877Y21746692D01*
X966882Y21540084D01*
X964111Y21529816D01*
X950008Y21451826D01*
X951427Y21438586D01*
X966062Y21434000D01*
X3600079Y21434000D01*
X3613610Y21437973D01*
X3614876Y21446782D01*
X3567954Y21627567D01*
X3564419Y21637605D01*
X3474147Y21838002D01*
X3468967Y21847308D01*
X3346218Y22029634D01*
X3339557Y22037920D01*
X3187830Y22196970D01*
X3179873Y22204010D01*
X3003524Y22335217D01*
X2990981Y22342995D01*
X2943628Y22395893D01*
X2932391Y22465995D01*
X2960838Y22531043D01*
X2984122Y22552591D01*
X3085448Y22625000D01*
X30685500Y22625000D01*
X30685500Y21025000D01*
X30690727Y20951921D01*
X30731904Y20811684D01*
X30736775Y20804105D01*
X30806051Y20696309D01*
X30806053Y20696306D01*
X30810923Y20688729D01*
X30817733Y20682828D01*
X30914569Y20598918D01*
X30914572Y20598916D01*
X30921381Y20593016D01*
X31054330Y20532300D01*
X31063245Y20531018D01*
X31063246Y20531018D01*
X31194552Y20512139D01*
X31194559Y20512138D01*
X31199000Y20511500D01*
X32799000Y20511500D01*
X32872079Y20516727D01*
X32950165Y20539655D01*
X33003670Y20555365D01*
X33003672Y20555366D01*
X33012316Y20557904D01*
X33076135Y20598918D01*
X33127691Y20632051D01*
X33127694Y20632053D01*
X33135271Y20636923D01*
X33175048Y20682828D01*
X33225082Y20740569D01*
X33225084Y20740572D01*
X33230984Y20747381D01*
X33291700Y20880330D01*
X33292982Y20889246D01*
X33311861Y21020552D01*
X33311862Y21020559D01*
X33312500Y21025000D01*
X33312500Y22625000D01*
X33307273Y22698079D01*
X33283846Y22777864D01*
X33268635Y22829670D01*
X33268634Y22829672D01*
X33266096Y22838316D01*
X33220393Y22909431D01*
X33191949Y22953691D01*
X33191947Y22953694D01*
X33187077Y22961271D01*
X33172261Y22974109D01*
X33083431Y23051082D01*
X33083428Y23051084D01*
X33076619Y23056984D01*
X32943670Y23117700D01*
X32934755Y23118982D01*
X32934754Y23118982D01*
X32803448Y23137861D01*
X32803441Y23137862D01*
X32799000Y23138500D01*
X31199000Y23138500D01*
X31125921Y23133273D01*
X31072884Y23117700D01*
X30994330Y23094635D01*
X30994328Y23094634D01*
X30985684Y23092096D01*
X30978105Y23087225D01*
X30870309Y23017949D01*
X30870306Y23017947D01*
X30862729Y23013077D01*
X30856828Y23006267D01*
X30772918Y22909431D01*
X30772916Y22909428D01*
X30767016Y22902619D01*
X30763272Y22894421D01*
X30713201Y22784780D01*
X30706300Y22769670D01*
X30705018Y22760755D01*
X30705018Y22760754D01*
X30686139Y22629448D01*
X30686138Y22629441D01*
X30685500Y22625000D01*
X3085448Y22625000D01*
X3164711Y22681643D01*
X3327030Y22845383D01*
X3403009Y22953691D01*
X3456375Y23029764D01*
X3456376Y23029766D01*
X3459439Y23034132D01*
X3558153Y23242492D01*
X3620349Y23464506D01*
X3644249Y23693824D01*
X3644500Y23720000D01*
X3644250Y23722948D01*
X3625458Y23944424D01*
X3625457Y23944428D01*
X3625007Y23949735D01*
X3567084Y24172902D01*
X3515731Y24286902D01*
X3474578Y24378257D01*
X3474577Y24378259D01*
X3472388Y24383118D01*
X3343627Y24574374D01*
X3184482Y24741201D01*
X2999504Y24878829D01*
X2994742Y24881250D01*
X2990967Y24883591D01*
X2943613Y24936488D01*
X2932374Y25006590D01*
X2960819Y25071639D01*
X2984107Y25093191D01*
X3160034Y25218911D01*
X3168149Y25225818D01*
X3322893Y25381918D01*
X3329706Y25390067D01*
X3455940Y25570012D01*
X3461295Y25579213D01*
X3555399Y25777844D01*
X3559123Y25787803D01*
X3616968Y25994282D01*
X3615430Y26002649D01*
X3603137Y26006000D01*
X964403Y26006000D01*
X951222Y26002130D01*
X949255Y25987577D01*
X957638Y25935529D01*
X960212Y25925207D01*
X1031230Y25717190D01*
X1035497Y25707467D01*
X1140556Y25514375D01*
X1146402Y25505509D01*
X1282486Y25332887D01*
X1289750Y25325125D01*
X1452967Y25177906D01*
X1461444Y25171472D01*
X1579717Y25096558D01*
X1626562Y25043210D01*
X1637129Y24973004D01*
X1608062Y24908230D01*
X1577662Y24882395D01*
X1495057Y24832269D01*
X1477631Y24821694D01*
X1473601Y24818197D01*
X1364563Y24723579D01*
X1303492Y24670585D01*
X1300109Y24666459D01*
X1300105Y24666455D01*
X1227768Y24578233D01*
X1157304Y24492295D01*
X1043245Y24291923D01*
X964578Y24075198D01*
X963629Y24069949D01*
X963628Y24069946D01*
X941890Y23949735D01*
X923551Y23848317D01*
X923500Y23842977D01*
X922097Y23696790D01*
X921338Y23617767D01*
X508000Y23617767D01*
X508000Y29650000D01*
X917500Y29650000D01*
X917500Y27950000D01*
X922727Y27876921D01*
X963904Y27736684D01*
X968775Y27729105D01*
X1038051Y27621309D01*
X1038053Y27621306D01*
X1042923Y27613729D01*
X1049733Y27607828D01*
X1146569Y27523918D01*
X1146572Y27523916D01*
X1153381Y27518016D01*
X1286330Y27457300D01*
X1293035Y27456336D01*
X1351813Y27418563D01*
X1381306Y27353983D01*
X1371203Y27283709D01*
X1339171Y27240885D01*
X1307879Y27213731D01*
X1300464Y27206105D01*
X1161100Y27036140D01*
X1155075Y27027373D01*
X1046342Y26836356D01*
X1041877Y26826692D01*
X966882Y26620084D01*
X964111Y26609816D01*
X950008Y26531826D01*
X951427Y26518586D01*
X966062Y26514000D01*
X3600079Y26514000D01*
X3613610Y26517973D01*
X3614876Y26526782D01*
X3567954Y26707567D01*
X3564419Y26717605D01*
X3474147Y26918002D01*
X3468967Y26927308D01*
X3346218Y27109634D01*
X3339557Y27117920D01*
X3211331Y27252335D01*
X3178784Y27315432D01*
X3185515Y27386109D01*
X3229389Y27441926D01*
X3267003Y27460203D01*
X3335670Y27480365D01*
X3335672Y27480366D01*
X3344316Y27482904D01*
X3408135Y27523918D01*
X3459691Y27557051D01*
X3459694Y27557053D01*
X3467271Y27561923D01*
X3507048Y27607828D01*
X3557082Y27665569D01*
X3557084Y27665572D01*
X3562984Y27672381D01*
X3623700Y27805330D01*
X3634716Y27881947D01*
X3634724Y27882000D01*
X29741500Y27882000D01*
X29741500Y26182000D01*
X29746727Y26108921D01*
X29767063Y26039663D01*
X29782357Y25987577D01*
X29787904Y25968684D01*
X29792775Y25961105D01*
X29862051Y25853309D01*
X29862053Y25853306D01*
X29866923Y25845729D01*
X29873733Y25839828D01*
X29970569Y25755918D01*
X29970572Y25755916D01*
X29977381Y25750016D01*
X29985579Y25746272D01*
X30097998Y25694932D01*
X30110330Y25689300D01*
X30119245Y25688018D01*
X30119246Y25688018D01*
X30250552Y25669139D01*
X30250559Y25669138D01*
X30255000Y25668500D01*
X31955000Y25668500D01*
X32028079Y25673727D01*
X32142988Y25707467D01*
X32159670Y25712365D01*
X32159672Y25712366D01*
X32168316Y25714904D01*
X32234721Y25757580D01*
X32283691Y25789051D01*
X32283694Y25789053D01*
X32291271Y25793923D01*
X32316086Y25822561D01*
X32381082Y25897569D01*
X32381084Y25897572D01*
X32386984Y25904381D01*
X32447700Y26037330D01*
X32448320Y26041640D01*
X32485432Y26099390D01*
X32550012Y26128883D01*
X32620286Y26118780D01*
X32652335Y26097730D01*
X32820629Y25945931D01*
X32825142Y25943072D01*
X32825144Y25943071D01*
X32853348Y25925207D01*
X33015406Y25822561D01*
X33228184Y25733772D01*
X33233387Y25732575D01*
X33233392Y25732574D01*
X33447678Y25683299D01*
X33447683Y25683298D01*
X33452881Y25682103D01*
X33458209Y25681800D01*
X33458212Y25681800D01*
X33608877Y25673245D01*
X33683071Y25669032D01*
X33688378Y25669632D01*
X33688380Y25669632D01*
X33862354Y25689300D01*
X33912173Y25694932D01*
X33917288Y25696413D01*
X33917292Y25696414D01*
X34046298Y25733772D01*
X34133635Y25759063D01*
X34341125Y25859591D01*
X34345463Y25862691D01*
X34345468Y25862694D01*
X34505883Y25977330D01*
X34528711Y25993643D01*
X34691030Y26157383D01*
X34823439Y26346132D01*
X34922153Y26554492D01*
X34984349Y26776506D01*
X34989580Y26826692D01*
X35007941Y27002873D01*
X35008249Y27005824D01*
X35008500Y27032000D01*
X35001210Y27117920D01*
X34989458Y27256424D01*
X34989457Y27256428D01*
X34989007Y27261735D01*
X34931084Y27484902D01*
X34913509Y27523918D01*
X34838578Y27690257D01*
X34838577Y27690259D01*
X34836388Y27695118D01*
X34825338Y27711532D01*
X34802583Y27745330D01*
X34707627Y27886374D01*
X34548482Y28053201D01*
X34363504Y28190829D01*
X34358753Y28193245D01*
X34358749Y28193247D01*
X34162740Y28292903D01*
X34162739Y28292903D01*
X34157982Y28295322D01*
X34017033Y28339088D01*
X33942895Y28362109D01*
X33942889Y28362110D01*
X33937792Y28363693D01*
X33832798Y28377609D01*
X33714515Y28393286D01*
X33714510Y28393286D01*
X33709230Y28393986D01*
X33703900Y28393786D01*
X33703899Y28393786D01*
X33610320Y28390273D01*
X33478831Y28385337D01*
X33434246Y28375982D01*
X33258411Y28339088D01*
X33258408Y28339087D01*
X33253184Y28337991D01*
X33038740Y28253303D01*
X32841631Y28133694D01*
X32837601Y28130197D01*
X32711406Y28020691D01*
X32667492Y27982585D01*
X32662339Y27976300D01*
X32661364Y27975635D01*
X32660390Y27974634D01*
X32660186Y27974832D01*
X32603681Y27936305D01*
X32532710Y27934372D01*
X32471961Y27971115D01*
X32444008Y28020691D01*
X32424634Y28086671D01*
X32422096Y28095316D01*
X32360713Y28190829D01*
X32347949Y28210691D01*
X32347947Y28210694D01*
X32343077Y28218271D01*
X32300384Y28255265D01*
X32239431Y28308082D01*
X32239428Y28308084D01*
X32232619Y28313984D01*
X32150175Y28351635D01*
X32107864Y28370958D01*
X32107863Y28370958D01*
X32099670Y28374700D01*
X32090755Y28375982D01*
X32090754Y28375982D01*
X31959448Y28394861D01*
X31959441Y28394862D01*
X31955000Y28395500D01*
X30255000Y28395500D01*
X30181921Y28390273D01*
X30128884Y28374700D01*
X30050330Y28351635D01*
X30050328Y28351634D01*
X30041684Y28349096D01*
X30021350Y28336028D01*
X29926309Y28274949D01*
X29926306Y28274947D01*
X29918729Y28270077D01*
X29912828Y28263267D01*
X29828918Y28166431D01*
X29828916Y28166428D01*
X29823016Y28159619D01*
X29762300Y28026670D01*
X29761018Y28017755D01*
X29761018Y28017754D01*
X29742139Y27886448D01*
X29742138Y27886441D01*
X29741500Y27882000D01*
X3634724Y27882000D01*
X3643861Y27945552D01*
X3643862Y27945559D01*
X3644500Y27950000D01*
X3644500Y29390123D01*
X31514739Y29390123D01*
X31523846Y29378266D01*
X31601157Y29323323D01*
X31609815Y29318162D01*
X31818488Y29215482D01*
X31827872Y29211767D01*
X32050257Y29143777D01*
X32060127Y29141607D01*
X32290520Y29110047D01*
X32300611Y29109483D01*
X32533091Y29115164D01*
X32543124Y29116219D01*
X32771716Y29158999D01*
X32781455Y29161645D01*
X33000263Y29240421D01*
X33009456Y29244591D01*
X33212848Y29357333D01*
X33221264Y29362924D01*
X33238704Y29376647D01*
X33247173Y29388549D01*
X33240676Y29400114D01*
X32392812Y30247978D01*
X32378868Y30255592D01*
X32377035Y30255461D01*
X32370420Y30251210D01*
X31521243Y29402033D01*
X31514739Y29390123D01*
X3644500Y29390123D01*
X3644500Y29650000D01*
X3639273Y29723079D01*
X3598096Y29863316D01*
X3552393Y29934431D01*
X3523949Y29978691D01*
X3523947Y29978694D01*
X3519077Y29986271D01*
X3512267Y29992172D01*
X3415431Y30076082D01*
X3415428Y30076084D01*
X3408619Y30081984D01*
X3400421Y30085728D01*
X3283864Y30138958D01*
X3283863Y30138958D01*
X3275670Y30142700D01*
X3266755Y30143982D01*
X3266754Y30143982D01*
X3135448Y30162861D01*
X3135441Y30162862D01*
X3131000Y30163500D01*
X1431000Y30163500D01*
X1357921Y30158273D01*
X1304884Y30142700D01*
X1226330Y30119635D01*
X1226328Y30119634D01*
X1217684Y30117096D01*
X1210105Y30112225D01*
X1102309Y30042949D01*
X1102306Y30042947D01*
X1094729Y30038077D01*
X1088828Y30031267D01*
X1004918Y29934431D01*
X1004916Y29934428D01*
X999016Y29927619D01*
X938300Y29794670D01*
X937018Y29785755D01*
X937018Y29785754D01*
X918139Y29654448D01*
X918138Y29654441D01*
X917500Y29650000D01*
X508000Y29650000D01*
X508000Y30519521D01*
X30870739Y30519521D01*
X30871443Y30509450D01*
X30906218Y30279510D01*
X30908522Y30269686D01*
X30979613Y30048265D01*
X30983461Y30038929D01*
X31089040Y29831717D01*
X31094325Y29823126D01*
X31138392Y29762917D01*
X31149404Y29754487D01*
X31162146Y29761356D01*
X32007978Y30607188D01*
X32014356Y30618868D01*
X32744408Y30618868D01*
X32744539Y30617035D01*
X32748790Y30610420D01*
X33598567Y29760643D01*
X33610947Y29753883D01*
X33619680Y29760421D01*
X33703069Y29886887D01*
X33707926Y29895722D01*
X33803259Y30107846D01*
X33806642Y30117347D01*
X33866836Y30341993D01*
X33868655Y30351905D01*
X33892378Y30585460D01*
X33892698Y30591184D01*
X33892970Y30617143D01*
X33892771Y30622848D01*
X33873943Y30856858D01*
X33872331Y30866811D01*
X33816856Y31092663D01*
X33813673Y31102233D01*
X33722803Y31316310D01*
X33718130Y31325247D01*
X33622036Y31477845D01*
X33611465Y31487176D01*
X33602303Y31483093D01*
X32752022Y30632812D01*
X32744408Y30618868D01*
X32014356Y30618868D01*
X32015592Y30621132D01*
X32015461Y30622965D01*
X32011210Y30629580D01*
X31161314Y31479476D01*
X31148746Y31486339D01*
X31137697Y31478155D01*
X31111296Y31443625D01*
X31105832Y31435146D01*
X30995936Y31230191D01*
X30991894Y31220939D01*
X30916182Y31001053D01*
X30913673Y30991281D01*
X30874089Y30762115D01*
X30873174Y30752067D01*
X30870739Y30519521D01*
X508000Y30519521D01*
X508000Y42989539D01*
X1354706Y42989539D01*
X1362096Y42979237D01*
X1621825Y42767785D01*
X1626866Y42764083D01*
X1954594Y42547575D01*
X1959996Y42544380D01*
X2307612Y42361490D01*
X2313285Y42358857D01*
X2677361Y42211391D01*
X2683254Y42209339D01*
X3060190Y42098758D01*
X3066249Y42097304D01*
X3452297Y42024707D01*
X3458496Y42023859D01*
X3849833Y41989965D01*
X3856078Y41989736D01*
X4248842Y41994878D01*
X4255096Y41995272D01*
X4645406Y42039396D01*
X4651566Y42040405D01*
X5035584Y42123082D01*
X5041620Y42124699D01*
X5415514Y42245103D01*
X5421366Y42247314D01*
X5781451Y42404258D01*
X5787059Y42407042D01*
X6129760Y42598964D01*
X6135077Y42602300D01*
X6457016Y42827305D01*
X6461984Y42831159D01*
X6635284Y42979958D01*
X6643708Y42992936D01*
X6637735Y43003055D01*
X4012812Y45627978D01*
X3998868Y45635592D01*
X3997035Y45635461D01*
X3990420Y45631210D01*
X1361872Y43002662D01*
X1354706Y42989539D01*
X508000Y42989539D01*
X508000Y43596506D01*
X528002Y43664627D01*
X581658Y43711120D01*
X651932Y43721224D01*
X716512Y43691730D01*
X738765Y43666508D01*
X776556Y43609949D01*
X780277Y43604939D01*
X978879Y43363586D01*
X991331Y43355129D01*
X1002157Y43361367D01*
X3627978Y45987188D01*
X3634356Y45998868D01*
X4364408Y45998868D01*
X4364539Y45997035D01*
X4368790Y45990420D01*
X6997457Y43361753D01*
X7011401Y43354139D01*
X7012445Y43354213D01*
X7020138Y43359287D01*
X7035654Y43375552D01*
X7039753Y43380300D01*
X7281309Y43690035D01*
X7284907Y43695154D01*
X7494512Y44027358D01*
X7497578Y44032799D01*
X7673151Y44384175D01*
X7675672Y44389921D01*
X7815478Y44756996D01*
X7817406Y44762928D01*
X7920066Y45142089D01*
X7921398Y45148197D01*
X7985891Y45535668D01*
X7986610Y45541884D01*
X8012387Y45935160D01*
X8012519Y45938776D01*
X8012986Y45998193D01*
X8012910Y46001805D01*
X7993313Y46395448D01*
X7992694Y46401657D01*
X7934293Y46790106D01*
X7933057Y46796235D01*
X7836370Y47176941D01*
X7834527Y47182932D01*
X7700503Y47552162D01*
X7698082Y47557921D01*
X7528050Y47912011D01*
X7525064Y47917512D01*
X7320709Y48252957D01*
X7317179Y48258151D01*
X7080520Y48571638D01*
X7076508Y48576437D01*
X7021144Y48636330D01*
X7007510Y48644486D01*
X7006993Y48644469D01*
X6998379Y48639169D01*
X4372022Y46012812D01*
X4364408Y45998868D01*
X3634356Y45998868D01*
X3635592Y46001132D01*
X3635461Y46002965D01*
X3631210Y46009580D01*
X1004346Y48636444D01*
X990855Y48643811D01*
X981085Y48636956D01*
X818307Y48445355D01*
X814490Y48440380D01*
X737653Y48329206D01*
X682468Y48284540D01*
X611894Y48276799D01*
X548339Y48308442D01*
X511981Y48369423D01*
X508000Y48400845D01*
X508000Y49366000D01*
X528002Y49434121D01*
X581658Y49480614D01*
X634000Y49492000D01*
X1592191Y49492000D01*
X1660312Y49471998D01*
G37*
%TD.AperFunction*%
%TA.AperFunction,Conductor*%
G36*
X33324050Y38351742D02*
G01*
X33350566Y38346106D01*
X33350581Y38346103D01*
X33350583Y38346102D01*
X33380491Y38339745D01*
X33405543Y38331605D01*
X33458253Y38308136D01*
X33481061Y38294968D01*
X33527751Y38261046D01*
X33547321Y38243425D01*
X33585934Y38200541D01*
X33601413Y38179235D01*
X33630264Y38129265D01*
X33640977Y38105204D01*
X33658809Y38050322D01*
X33664286Y38024559D01*
X33670318Y37967171D01*
X33670318Y37940828D01*
X33664286Y37883442D01*
X33658809Y37857677D01*
X33640978Y37802800D01*
X33630264Y37778737D01*
X33601414Y37728767D01*
X33585932Y37707458D01*
X33547322Y37664576D01*
X33527747Y37646950D01*
X33481061Y37613031D01*
X33458261Y37599868D01*
X33405540Y37576394D01*
X33380491Y37568255D01*
X33352267Y37562256D01*
X33352265Y37562255D01*
X33352254Y37562253D01*
X33340541Y37559763D01*
X33324050Y37556258D01*
X33297853Y37553504D01*
X33240147Y37553504D01*
X33213950Y37556258D01*
X33197459Y37559763D01*
X33185746Y37562253D01*
X33185735Y37562255D01*
X33185733Y37562256D01*
X33157509Y37568255D01*
X33132460Y37576394D01*
X33079739Y37599868D01*
X33056939Y37613031D01*
X33010253Y37646950D01*
X32990678Y37664576D01*
X32952068Y37707458D01*
X32936586Y37728767D01*
X32907736Y37778737D01*
X32897022Y37802800D01*
X32879191Y37857677D01*
X32873714Y37883442D01*
X32867682Y37940828D01*
X32867682Y37967172D01*
X32873714Y38024558D01*
X32879191Y38050322D01*
X32897021Y38105197D01*
X32907734Y38129260D01*
X32936585Y38179232D01*
X32952069Y38200544D01*
X32990678Y38243423D01*
X33010252Y38261047D01*
X33056938Y38294967D01*
X33079747Y38308136D01*
X33132457Y38331605D01*
X33157509Y38339745D01*
X33187417Y38346102D01*
X33187419Y38346103D01*
X33187434Y38346106D01*
X33213950Y38351742D01*
X33240146Y38354496D01*
X33297854Y38354496D01*
X33324050Y38351742D01*
G37*
%TD.AperFunction*%
%TA.AperFunction,Conductor*%
G36*
X33324050Y41399742D02*
G01*
X33340541Y41396237D01*
X33352254Y41393747D01*
X33352267Y41393744D01*
X33380491Y41387745D01*
X33405540Y41379606D01*
X33458257Y41356135D01*
X33481056Y41342971D01*
X33527751Y41309046D01*
X33547319Y41291428D01*
X33585935Y41248540D01*
X33601414Y41227234D01*
X33630266Y41177261D01*
X33640980Y41153198D01*
X33658809Y41098327D01*
X33664286Y41072561D01*
X33670318Y41015172D01*
X33670318Y40988830D01*
X33664286Y40931443D01*
X33658809Y40905677D01*
X33640978Y40850800D01*
X33630265Y40826739D01*
X33601414Y40776766D01*
X33585936Y40755462D01*
X33547318Y40712572D01*
X33527750Y40694953D01*
X33481063Y40661033D01*
X33458250Y40647862D01*
X33405541Y40624395D01*
X33380491Y40616256D01*
X33352298Y40610263D01*
X33352254Y40610253D01*
X33340541Y40607763D01*
X33324050Y40604258D01*
X33297853Y40601504D01*
X33240147Y40601504D01*
X33213950Y40604258D01*
X33197459Y40607763D01*
X33185746Y40610253D01*
X33185702Y40610263D01*
X33157509Y40616256D01*
X33132459Y40624395D01*
X33079750Y40647862D01*
X33056937Y40661033D01*
X33010250Y40694953D01*
X32990682Y40712572D01*
X32952064Y40755462D01*
X32936586Y40776766D01*
X32907735Y40826739D01*
X32897022Y40850800D01*
X32879191Y40905677D01*
X32873714Y40931442D01*
X32867682Y40988828D01*
X32867682Y41015171D01*
X32873714Y41072559D01*
X32879190Y41098319D01*
X32897022Y41153200D01*
X32907733Y41177260D01*
X32907734Y41177261D01*
X32936590Y41227240D01*
X32952062Y41248537D01*
X32990682Y41291428D01*
X33010249Y41309046D01*
X33056944Y41342971D01*
X33079743Y41356135D01*
X33132460Y41379606D01*
X33157509Y41387745D01*
X33185733Y41393744D01*
X33185746Y41393747D01*
X33197459Y41396237D01*
X33213950Y41399742D01*
X33240147Y41402496D01*
X33297853Y41402496D01*
X33324050Y41399742D01*
G37*
%TD.AperFunction*%
%TD*%
%TA.AperFunction,Conductor*%
%TO.N,GNDA*%
G36*
X56452121Y48474998D02*
G01*
X56498614Y48421342D01*
X56510000Y48369000D01*
X56510000Y43846582D01*
X56489998Y43778461D01*
X56436342Y43731968D01*
X56366068Y43721864D01*
X56301488Y43751358D01*
X56294905Y43757487D01*
X55244002Y44808390D01*
X55209976Y44870702D01*
X55207776Y44910546D01*
X55220941Y45036873D01*
X55221249Y45039824D01*
X55221500Y45066000D01*
X55221250Y45068948D01*
X55202458Y45290424D01*
X55202457Y45290428D01*
X55202007Y45295735D01*
X55195276Y45321671D01*
X55145426Y45513731D01*
X55144084Y45518902D01*
X55049388Y45729118D01*
X54920627Y45920374D01*
X54761482Y46087201D01*
X54716781Y46120460D01*
X54580786Y46221643D01*
X54580787Y46221643D01*
X54576504Y46224829D01*
X54571753Y46227245D01*
X54571749Y46227247D01*
X54375740Y46326903D01*
X54375739Y46326903D01*
X54370982Y46329322D01*
X54230033Y46373088D01*
X54155895Y46396109D01*
X54155889Y46396110D01*
X54150792Y46397693D01*
X54016800Y46415452D01*
X53927515Y46427286D01*
X53927510Y46427286D01*
X53922230Y46427986D01*
X53916900Y46427786D01*
X53916899Y46427786D01*
X53807031Y46423662D01*
X53691831Y46419337D01*
X53621010Y46404477D01*
X53471411Y46373088D01*
X53471408Y46373087D01*
X53466184Y46371991D01*
X53251740Y46287303D01*
X53054631Y46167694D01*
X53050601Y46164197D01*
X52957426Y46083344D01*
X52880492Y46016585D01*
X52877109Y46012459D01*
X52877105Y46012455D01*
X52804768Y45924233D01*
X52734304Y45838295D01*
X52731667Y45833662D01*
X52731666Y45833661D01*
X52698116Y45774722D01*
X52647033Y45725416D01*
X52577402Y45711555D01*
X52511332Y45737539D01*
X52484094Y45766688D01*
X52478686Y45774722D01*
X52386598Y45911505D01*
X52383607Y45915948D01*
X52383605Y45915950D01*
X52380627Y45920374D01*
X52221482Y46087201D01*
X52176781Y46120460D01*
X52040786Y46221643D01*
X52040787Y46221643D01*
X52036504Y46224829D01*
X52031753Y46227245D01*
X52031749Y46227247D01*
X51835740Y46326903D01*
X51835739Y46326903D01*
X51830982Y46329322D01*
X51690033Y46373088D01*
X51615895Y46396109D01*
X51615889Y46396110D01*
X51610792Y46397693D01*
X51476800Y46415452D01*
X51387515Y46427286D01*
X51387510Y46427286D01*
X51382230Y46427986D01*
X51376900Y46427786D01*
X51376899Y46427786D01*
X51267031Y46423662D01*
X51151831Y46419337D01*
X51081010Y46404477D01*
X50931411Y46373088D01*
X50931408Y46373087D01*
X50926184Y46371991D01*
X50711740Y46287303D01*
X50514631Y46167694D01*
X50510601Y46164197D01*
X50417426Y46083344D01*
X50340492Y46016585D01*
X50334961Y46009840D01*
X50333778Y46009033D01*
X50333390Y46008634D01*
X50333309Y46008713D01*
X50276305Y45969843D01*
X50205335Y45967907D01*
X50144585Y46004648D01*
X50116628Y46054227D01*
X50097180Y46120460D01*
X50089767Y46136692D01*
X50020574Y46244360D01*
X50008888Y46257847D01*
X49912160Y46341662D01*
X49897152Y46351307D01*
X49780725Y46404477D01*
X49763612Y46409502D01*
X49632446Y46428361D01*
X49623505Y46429000D01*
X49050115Y46429000D01*
X49034876Y46424525D01*
X49033671Y46423135D01*
X49032000Y46415452D01*
X49032000Y43721115D01*
X49036475Y43705876D01*
X49037865Y43704671D01*
X49045548Y43703000D01*
X49625743Y43703000D01*
X49630250Y43703161D01*
X49694269Y43707740D01*
X49707491Y43710126D01*
X49832458Y43746819D01*
X49848692Y43754233D01*
X49956360Y43823426D01*
X49969847Y43835112D01*
X50053662Y43931840D01*
X50063307Y43946848D01*
X50116478Y44063277D01*
X50119637Y44074036D01*
X50158021Y44133762D01*
X50222601Y44163256D01*
X50292875Y44153152D01*
X50324921Y44132103D01*
X50493629Y43979931D01*
X50498142Y43977072D01*
X50498144Y43977071D01*
X50558406Y43938902D01*
X50688406Y43856561D01*
X50901184Y43767772D01*
X50906387Y43766575D01*
X50906392Y43766574D01*
X51120678Y43717299D01*
X51120683Y43717298D01*
X51125881Y43716103D01*
X51131209Y43715800D01*
X51131212Y43715800D01*
X51277826Y43707475D01*
X51356071Y43703032D01*
X51361378Y43703632D01*
X51361380Y43703632D01*
X51505668Y43719944D01*
X51585173Y43728932D01*
X51590288Y43730413D01*
X51590292Y43730414D01*
X51719298Y43767772D01*
X51806635Y43793063D01*
X52014125Y43893591D01*
X52018463Y43896691D01*
X52018468Y43896694D01*
X52197370Y44024541D01*
X52201711Y44027643D01*
X52303953Y44130780D01*
X52360277Y44187597D01*
X52360278Y44187598D01*
X52364030Y44191383D01*
X52367090Y44195745D01*
X52367095Y44195751D01*
X52485634Y44364729D01*
X52541130Y44409010D01*
X52611755Y44416257D01*
X52675088Y44384171D01*
X52699461Y44352590D01*
X52719685Y44315420D01*
X52862424Y44134356D01*
X52866389Y44130780D01*
X53029659Y43983511D01*
X53029665Y43983506D01*
X53033629Y43979931D01*
X53038142Y43977072D01*
X53038144Y43977071D01*
X53098406Y43938902D01*
X53228406Y43856561D01*
X53441184Y43767772D01*
X53446387Y43766575D01*
X53446392Y43766574D01*
X53660678Y43717299D01*
X53660683Y43717298D01*
X53665881Y43716103D01*
X53671209Y43715800D01*
X53671212Y43715800D01*
X53817826Y43707475D01*
X53896071Y43703032D01*
X53901377Y43703632D01*
X53901381Y43703632D01*
X53985342Y43713124D01*
X54055278Y43700901D01*
X54088591Y43677017D01*
X55259884Y42505724D01*
X55293910Y42443412D01*
X55290622Y42377693D01*
X55278827Y42341390D01*
X55235462Y42207927D01*
X55215500Y42018000D01*
X55216190Y42011435D01*
X55218528Y41989195D01*
X55235462Y41828073D01*
X55294476Y41646446D01*
X55389963Y41481058D01*
X55394381Y41476151D01*
X55394382Y41476150D01*
X55504314Y41354058D01*
X55517749Y41339137D01*
X55523091Y41335256D01*
X55523093Y41335254D01*
X55663690Y41233105D01*
X55672250Y41226886D01*
X55678278Y41224202D01*
X55678280Y41224201D01*
X55826714Y41158114D01*
X55846713Y41149210D01*
X55940113Y41129357D01*
X56027056Y41110876D01*
X56027061Y41110876D01*
X56033513Y41109504D01*
X56224487Y41109504D01*
X56230939Y41110876D01*
X56230944Y41110876D01*
X56317887Y41129357D01*
X56411287Y41149210D01*
X56431286Y41158114D01*
X56579720Y41224201D01*
X56579722Y41224202D01*
X56585750Y41226886D01*
X56594310Y41233105D01*
X56734907Y41335254D01*
X56734909Y41335256D01*
X56740251Y41339137D01*
X56753686Y41354058D01*
X56856559Y41468310D01*
X56917005Y41505550D01*
X56950195Y41510000D01*
X79244000Y41510000D01*
X79312121Y41489998D01*
X79358614Y41436342D01*
X79370000Y41384000D01*
X79370000Y14966000D01*
X79349998Y14897879D01*
X79296342Y14851386D01*
X79244000Y14840000D01*
X73072190Y14840000D01*
X73004069Y14860002D01*
X72983095Y14876905D01*
X70752423Y17107577D01*
X75498255Y17107577D01*
X75506638Y17055529D01*
X75509212Y17045207D01*
X75580230Y16837190D01*
X75584497Y16827467D01*
X75689556Y16634375D01*
X75695402Y16625509D01*
X75831486Y16452887D01*
X75838750Y16445125D01*
X76001967Y16297906D01*
X76010444Y16291472D01*
X76196122Y16173864D01*
X76205567Y16168947D01*
X76408406Y16084306D01*
X76418545Y16081050D01*
X76558345Y16048904D01*
X76572422Y16049743D01*
X76576000Y16059001D01*
X76576000Y17107885D01*
X76574659Y17112452D01*
X77084000Y17112452D01*
X77084000Y16060059D01*
X77088151Y16045921D01*
X77098798Y16044226D01*
X77102192Y16044904D01*
X77313333Y16106046D01*
X77323259Y16109857D01*
X77521065Y16205693D01*
X77530212Y16211124D01*
X77709041Y16338917D01*
X77717149Y16345818D01*
X77871893Y16501918D01*
X77878706Y16510067D01*
X78004940Y16690012D01*
X78010295Y16699213D01*
X78104399Y16897844D01*
X78108123Y16907803D01*
X78165968Y17114282D01*
X78164430Y17122649D01*
X78152137Y17126000D01*
X77102115Y17126000D01*
X77086876Y17121525D01*
X77085671Y17120135D01*
X77084000Y17112452D01*
X76574659Y17112452D01*
X76571525Y17123124D01*
X76570135Y17124329D01*
X76562452Y17126000D01*
X75513403Y17126000D01*
X75500222Y17122130D01*
X75498255Y17107577D01*
X70752423Y17107577D01*
X67090000Y20770000D01*
X75466500Y20770000D01*
X75466500Y19070000D01*
X75471727Y18996921D01*
X75512904Y18856684D01*
X75517775Y18849105D01*
X75587051Y18741309D01*
X75587053Y18741306D01*
X75591923Y18733729D01*
X75598733Y18727828D01*
X75695569Y18643918D01*
X75695572Y18643916D01*
X75702381Y18638016D01*
X75835330Y18577300D01*
X75842035Y18576336D01*
X75900813Y18538563D01*
X75930306Y18473983D01*
X75920203Y18403709D01*
X75888171Y18360885D01*
X75856879Y18333731D01*
X75849464Y18326105D01*
X75710100Y18156140D01*
X75704075Y18147373D01*
X75595342Y17956356D01*
X75590877Y17946692D01*
X75515882Y17740084D01*
X75513111Y17729816D01*
X75499008Y17651826D01*
X75500427Y17638586D01*
X75515062Y17634000D01*
X78149079Y17634000D01*
X78162610Y17637973D01*
X78163876Y17646782D01*
X78116954Y17827567D01*
X78113419Y17837605D01*
X78023147Y18038002D01*
X78017967Y18047308D01*
X77895218Y18229634D01*
X77888557Y18237920D01*
X77760331Y18372335D01*
X77727784Y18435432D01*
X77734515Y18506109D01*
X77778389Y18561926D01*
X77816003Y18580203D01*
X77884670Y18600365D01*
X77884672Y18600366D01*
X77893316Y18602904D01*
X77957135Y18643918D01*
X78008691Y18677051D01*
X78008694Y18677053D01*
X78016271Y18681923D01*
X78022172Y18688733D01*
X78106082Y18785569D01*
X78106084Y18785572D01*
X78111984Y18792381D01*
X78172700Y18925330D01*
X78183962Y19003660D01*
X78192861Y19065552D01*
X78192862Y19065559D01*
X78193500Y19070000D01*
X78193500Y20770000D01*
X78188273Y20843079D01*
X78164846Y20922864D01*
X78149635Y20974670D01*
X78149634Y20974672D01*
X78147096Y20983316D01*
X78101393Y21054431D01*
X78072949Y21098691D01*
X78072947Y21098694D01*
X78068077Y21106271D01*
X78061267Y21112172D01*
X77964431Y21196082D01*
X77964428Y21196084D01*
X77957619Y21201984D01*
X77875175Y21239635D01*
X77832864Y21258958D01*
X77832863Y21258958D01*
X77824670Y21262700D01*
X77815755Y21263982D01*
X77815754Y21263982D01*
X77684448Y21282861D01*
X77684441Y21282862D01*
X77680000Y21283500D01*
X75980000Y21283500D01*
X75906921Y21278273D01*
X75853884Y21262700D01*
X75775330Y21239635D01*
X75775328Y21239634D01*
X75766684Y21237096D01*
X75759105Y21232225D01*
X75651309Y21162949D01*
X75651306Y21162947D01*
X75643729Y21158077D01*
X75637828Y21151267D01*
X75553918Y21054431D01*
X75553916Y21054428D01*
X75548016Y21047619D01*
X75544272Y21039421D01*
X75510259Y20964942D01*
X75487300Y20914670D01*
X75486018Y20905755D01*
X75486018Y20905754D01*
X75467139Y20774448D01*
X75467138Y20774441D01*
X75466500Y20770000D01*
X67090000Y20770000D01*
X62896905Y24963095D01*
X62862879Y25025407D01*
X62860000Y25052190D01*
X62860000Y28000597D01*
X70271996Y28000597D01*
X70298145Y27701717D01*
X70299055Y27697645D01*
X70299056Y27697640D01*
X70362681Y27413000D01*
X70363593Y27408920D01*
X70467190Y27127352D01*
X70469134Y27123664D01*
X70469138Y27123656D01*
X70565853Y26940220D01*
X70607116Y26861958D01*
X70780913Y26617402D01*
X70783757Y26614353D01*
X70783762Y26614346D01*
X70868012Y26524000D01*
X70985528Y26397980D01*
X70988757Y26395327D01*
X70988762Y26395323D01*
X71144835Y26267123D01*
X71217365Y26207546D01*
X71220922Y26205340D01*
X71220927Y26205337D01*
X71306232Y26152446D01*
X71472351Y26049448D01*
X71746007Y25926462D01*
X71774587Y25917942D01*
X72029528Y25841940D01*
X72029536Y25841938D01*
X72033525Y25840749D01*
X72037642Y25840097D01*
X72037646Y25840096D01*
X72326385Y25794365D01*
X72326390Y25794365D01*
X72329853Y25793816D01*
X72380677Y25791508D01*
X72423476Y25789564D01*
X72423495Y25789564D01*
X72424895Y25789500D01*
X76110277Y25789500D01*
X76334362Y25804384D01*
X76628465Y25863685D01*
X76912142Y25961363D01*
X76915875Y25963232D01*
X76915879Y25963234D01*
X77176669Y26093828D01*
X77176671Y26093829D01*
X77180407Y26095700D01*
X77428550Y26264338D01*
X77506545Y26334073D01*
X77649092Y26461525D01*
X77649093Y26461526D01*
X77652209Y26464312D01*
X77847455Y26692110D01*
X77944842Y26842073D01*
X78008580Y26940220D01*
X78008583Y26940225D01*
X78010859Y26943730D01*
X78040344Y27005824D01*
X78137754Y27210970D01*
X78139549Y27214750D01*
X78231264Y27500410D01*
X78284394Y27795690D01*
X78298004Y28095403D01*
X78291867Y28165554D01*
X78272219Y28390121D01*
X78271855Y28394283D01*
X78254291Y28472863D01*
X78207319Y28683001D01*
X78207318Y28683004D01*
X78206407Y28687080D01*
X78102810Y28968648D01*
X78100866Y28972336D01*
X78100862Y28972344D01*
X77964831Y29230349D01*
X77962884Y29234042D01*
X77789087Y29478598D01*
X77786243Y29481647D01*
X77786238Y29481654D01*
X77587326Y29694959D01*
X77584472Y29698020D01*
X77581243Y29700673D01*
X77581238Y29700677D01*
X77355872Y29885795D01*
X77352635Y29888454D01*
X77349078Y29890660D01*
X77349073Y29890663D01*
X77172246Y30000300D01*
X77097649Y30046552D01*
X76823993Y30169538D01*
X76735438Y30195937D01*
X76540472Y30254060D01*
X76540464Y30254062D01*
X76536475Y30255251D01*
X76532358Y30255903D01*
X76532354Y30255904D01*
X76243615Y30301635D01*
X76243610Y30301635D01*
X76240147Y30302184D01*
X76189323Y30304492D01*
X76146524Y30306436D01*
X76146505Y30306436D01*
X76145105Y30306500D01*
X72459723Y30306500D01*
X72235638Y30291616D01*
X71941535Y30232315D01*
X71657858Y30134637D01*
X71654125Y30132768D01*
X71654121Y30132766D01*
X71475362Y30043250D01*
X71389593Y30000300D01*
X71141450Y29831662D01*
X71138336Y29828878D01*
X71138335Y29828877D01*
X71038709Y29739801D01*
X70917791Y29631688D01*
X70722545Y29403890D01*
X70720271Y29400388D01*
X70565386Y29161886D01*
X70559141Y29152270D01*
X70430451Y28881250D01*
X70338736Y28595590D01*
X70285606Y28300310D01*
X70271996Y28000597D01*
X62860000Y28000597D01*
X62860000Y30588000D01*
X64181500Y30588000D01*
X64201455Y30359913D01*
X64202879Y30354600D01*
X64202879Y30354598D01*
X64217071Y30301635D01*
X64260714Y30138757D01*
X64263036Y30133776D01*
X64263037Y30133775D01*
X64355150Y29936237D01*
X64355153Y29936232D01*
X64357476Y29931250D01*
X64360632Y29926743D01*
X64360633Y29926741D01*
X64475235Y29763073D01*
X64488801Y29743698D01*
X64650698Y29581801D01*
X64655206Y29578644D01*
X64655209Y29578642D01*
X64833741Y29453633D01*
X64838250Y29450476D01*
X64843232Y29448153D01*
X64843237Y29448150D01*
X65033619Y29359374D01*
X65045757Y29353714D01*
X65051065Y29352292D01*
X65051067Y29352291D01*
X65261598Y29295879D01*
X65261600Y29295879D01*
X65266913Y29294455D01*
X65495000Y29274500D01*
X65723087Y29294455D01*
X65728400Y29295879D01*
X65728402Y29295879D01*
X65938933Y29352291D01*
X65938935Y29352292D01*
X65944243Y29353714D01*
X65956381Y29359374D01*
X66146763Y29448150D01*
X66146768Y29448153D01*
X66151750Y29450476D01*
X66156259Y29453633D01*
X66334791Y29578642D01*
X66334794Y29578644D01*
X66339302Y29581801D01*
X66501199Y29743698D01*
X66514766Y29763073D01*
X66629367Y29926741D01*
X66629368Y29926743D01*
X66632524Y29931250D01*
X66634847Y29936232D01*
X66634850Y29936237D01*
X66726963Y30133775D01*
X66726964Y30133776D01*
X66729286Y30138757D01*
X66772930Y30301635D01*
X66787121Y30354598D01*
X66787121Y30354600D01*
X66788545Y30359913D01*
X66808500Y30588000D01*
X66788545Y30816087D01*
X66729286Y31037243D01*
X66701078Y31097735D01*
X66634850Y31239763D01*
X66634847Y31239768D01*
X66632524Y31244750D01*
X66578994Y31321199D01*
X66504358Y31427791D01*
X66504356Y31427794D01*
X66501199Y31432302D01*
X66339302Y31594199D01*
X66334794Y31597356D01*
X66334791Y31597358D01*
X66231316Y31669812D01*
X66186988Y31725269D01*
X66179679Y31795889D01*
X66211710Y31859249D01*
X66255111Y31886797D01*
X66254241Y31888750D01*
X66260270Y31891434D01*
X66266554Y31893476D01*
X66431942Y31988963D01*
X66504227Y32054048D01*
X66568952Y32112327D01*
X66568953Y32112328D01*
X66573863Y32116749D01*
X66627852Y32191058D01*
X66682233Y32265908D01*
X66682234Y32265909D01*
X66686114Y32271250D01*
X66732122Y32374585D01*
X66778103Y32428681D01*
X66846030Y32449330D01*
X66914338Y32429977D01*
X66950442Y32395606D01*
X67025638Y32288214D01*
X67025642Y32288209D01*
X67028801Y32283698D01*
X67190698Y32121801D01*
X67195206Y32118644D01*
X67195209Y32118642D01*
X67373741Y31993633D01*
X67378250Y31990476D01*
X67383232Y31988153D01*
X67383237Y31988150D01*
X67498932Y31934201D01*
X67585757Y31893714D01*
X67591065Y31892292D01*
X67591067Y31892291D01*
X67801598Y31835879D01*
X67801600Y31835879D01*
X67806913Y31834455D01*
X68035000Y31814500D01*
X68263087Y31834455D01*
X68268400Y31835879D01*
X68268402Y31835879D01*
X68478933Y31892291D01*
X68478935Y31892292D01*
X68484243Y31893714D01*
X68571068Y31934201D01*
X68686763Y31988150D01*
X68686768Y31988153D01*
X68691750Y31990476D01*
X68696259Y31993633D01*
X68874791Y32118642D01*
X68874794Y32118644D01*
X68879302Y32121801D01*
X69041199Y32283698D01*
X69044362Y32288214D01*
X69169367Y32466741D01*
X69169368Y32466743D01*
X69172524Y32471250D01*
X69174847Y32476232D01*
X69174850Y32476237D01*
X69266963Y32673775D01*
X69266964Y32673776D01*
X69269286Y32678757D01*
X69328545Y32899913D01*
X69348500Y33128000D01*
X69328545Y33356087D01*
X69269286Y33577243D01*
X69266963Y33582225D01*
X69174850Y33779763D01*
X69174847Y33779768D01*
X69172524Y33784750D01*
X69145653Y33823126D01*
X69044358Y33967791D01*
X69044356Y33967794D01*
X69041199Y33972302D01*
X68879302Y34134199D01*
X68874794Y34137356D01*
X68874791Y34137358D01*
X68696259Y34262367D01*
X68696257Y34262368D01*
X68691750Y34265524D01*
X68686768Y34267847D01*
X68686763Y34267850D01*
X68489225Y34359963D01*
X68489224Y34359964D01*
X68484243Y34362286D01*
X68478935Y34363708D01*
X68478933Y34363709D01*
X68268402Y34420121D01*
X68268400Y34420121D01*
X68263087Y34421545D01*
X68035000Y34441500D01*
X67806913Y34421545D01*
X67801600Y34420121D01*
X67801598Y34420121D01*
X67591067Y34363709D01*
X67591065Y34363708D01*
X67585757Y34362286D01*
X67580776Y34359964D01*
X67580775Y34359963D01*
X67383237Y34267850D01*
X67383232Y34267847D01*
X67378250Y34265524D01*
X67373743Y34262368D01*
X67373741Y34262367D01*
X67195209Y34137358D01*
X67195206Y34137356D01*
X67190698Y34134199D01*
X67028801Y33972302D01*
X67025644Y33967794D01*
X67025642Y33967791D01*
X66953188Y33864316D01*
X66897731Y33819988D01*
X66827111Y33812679D01*
X66763751Y33844710D01*
X66736203Y33888111D01*
X66734250Y33887241D01*
X66731566Y33893270D01*
X66729524Y33899554D01*
X66634037Y34064942D01*
X66625771Y34074123D01*
X66510673Y34201952D01*
X66510672Y34201953D01*
X66506251Y34206863D01*
X66500909Y34210744D01*
X66500907Y34210746D01*
X66357092Y34315233D01*
X66357091Y34315234D01*
X66351750Y34319114D01*
X66345724Y34321797D01*
X66345717Y34321801D01*
X66246595Y34365932D01*
X66192499Y34411912D01*
X66171849Y34479839D01*
X66191201Y34548147D01*
X66199422Y34559711D01*
X66216426Y34580984D01*
X66209358Y34594432D01*
X65507812Y35295978D01*
X65493868Y35303592D01*
X65492035Y35303461D01*
X65485420Y35299210D01*
X64779920Y34593710D01*
X64773490Y34581936D01*
X64789532Y34561201D01*
X64815395Y34495083D01*
X64801407Y34425478D01*
X64752008Y34374485D01*
X64735730Y34367315D01*
X64735759Y34367250D01*
X64729730Y34364566D01*
X64723446Y34362524D01*
X64558058Y34267037D01*
X64553151Y34262619D01*
X64553150Y34262618D01*
X64481670Y34198257D01*
X64416137Y34139251D01*
X64412256Y34133909D01*
X64412254Y34133907D01*
X64357994Y34059224D01*
X64303886Y33984750D01*
X64301202Y33978722D01*
X64301201Y33978720D01*
X64250265Y33864316D01*
X64226210Y33810287D01*
X64186504Y33623487D01*
X64186500Y33623411D01*
X64186500Y32680428D01*
X64201462Y32538073D01*
X64260476Y32356446D01*
X64355963Y32191058D01*
X64360381Y32186151D01*
X64360382Y32186150D01*
X64479327Y32054048D01*
X64483749Y32049137D01*
X64489091Y32045256D01*
X64489093Y32045254D01*
X64632908Y31940767D01*
X64638250Y31936886D01*
X64644278Y31934202D01*
X64644280Y31934201D01*
X64741585Y31890878D01*
X64795681Y31844897D01*
X64816330Y31776970D01*
X64796977Y31708662D01*
X64762606Y31672558D01*
X64655214Y31597362D01*
X64655208Y31597357D01*
X64650698Y31594199D01*
X64488801Y31432302D01*
X64485644Y31427794D01*
X64485642Y31427791D01*
X64411006Y31321199D01*
X64357476Y31244750D01*
X64355153Y31239768D01*
X64355150Y31239763D01*
X64288922Y31097735D01*
X64260714Y31037243D01*
X64201455Y30816087D01*
X64181500Y30588000D01*
X62860000Y30588000D01*
X62860000Y32620000D01*
X17266000Y32620000D01*
X17197879Y32640002D01*
X17151386Y32693658D01*
X17140000Y32746000D01*
X17140000Y33390123D01*
X31514739Y33390123D01*
X31523846Y33378266D01*
X31601157Y33323323D01*
X31609815Y33318162D01*
X31818488Y33215482D01*
X31827872Y33211767D01*
X32050257Y33143777D01*
X32060127Y33141607D01*
X32290520Y33110047D01*
X32300611Y33109483D01*
X32533091Y33115164D01*
X32543124Y33116219D01*
X32771716Y33158999D01*
X32781455Y33161645D01*
X33000263Y33240421D01*
X33009456Y33244591D01*
X33212848Y33357333D01*
X33221264Y33362924D01*
X33238704Y33376647D01*
X33247173Y33388549D01*
X33240676Y33400114D01*
X32392812Y34247978D01*
X32378868Y34255592D01*
X32377035Y34255461D01*
X32370420Y34251210D01*
X31521243Y33402033D01*
X31514739Y33390123D01*
X17140000Y33390123D01*
X17140000Y40367000D01*
X17750500Y40367000D01*
X17770462Y40177073D01*
X17772502Y40170795D01*
X17772502Y40170794D01*
X17784714Y40133210D01*
X17829476Y39995446D01*
X17832779Y39989724D01*
X17832780Y39989723D01*
X17838619Y39979610D01*
X17855500Y39916610D01*
X17855500Y36809224D01*
X17855493Y36807905D01*
X17854665Y36728791D01*
X17856155Y36721901D01*
X17863823Y36686434D01*
X17865884Y36673851D01*
X17870716Y36630770D01*
X17881744Y36599103D01*
X17885902Y36584306D01*
X17891500Y36558413D01*
X17891503Y36558405D01*
X17892990Y36551526D01*
X17895965Y36545147D01*
X17895965Y36545146D01*
X17911308Y36512245D01*
X17916106Y36500428D01*
X17930359Y36459498D01*
X17948134Y36431052D01*
X17955465Y36417550D01*
X17969637Y36387159D01*
X17973951Y36381598D01*
X17973953Y36381594D01*
X17996199Y36352915D01*
X18003493Y36342459D01*
X18022732Y36311669D01*
X18022735Y36311665D01*
X18026465Y36305696D01*
X18031427Y36300700D01*
X18031428Y36300698D01*
X18054374Y36277592D01*
X18055840Y36276025D01*
X18056729Y36274879D01*
X18105347Y36226261D01*
X18105657Y36225950D01*
X18154258Y36177009D01*
X18154999Y36176539D01*
X18155682Y36175926D01*
X19296397Y35035211D01*
X19330423Y34972899D01*
X19333302Y34945787D01*
X19333261Y34930145D01*
X19372713Y34722343D01*
X19450748Y34525751D01*
X19453972Y34520700D01*
X19453973Y34520698D01*
X19461153Y34509450D01*
X19564550Y34347461D01*
X19645160Y34262367D01*
X19697740Y34206863D01*
X19710013Y34193907D01*
X19714878Y34190417D01*
X19714881Y34190415D01*
X19830000Y34107846D01*
X19881887Y34070630D01*
X20073972Y33982078D01*
X20079788Y33980644D01*
X20079791Y33980643D01*
X20131919Y33967791D01*
X20279337Y33931445D01*
X20285327Y33931136D01*
X20285329Y33931136D01*
X20359698Y33927304D01*
X20490570Y33920560D01*
X20496505Y33921389D01*
X20496509Y33921389D01*
X20652543Y33943180D01*
X20700051Y33949814D01*
X20900221Y34018152D01*
X21083857Y34123109D01*
X21088401Y34127010D01*
X21088406Y34127014D01*
X21239786Y34256992D01*
X21244334Y34260897D01*
X21375860Y34426544D01*
X21383413Y34441021D01*
X21424364Y34519521D01*
X30870739Y34519521D01*
X30871443Y34509450D01*
X30906218Y34279510D01*
X30908522Y34269686D01*
X30979613Y34048265D01*
X30983461Y34038929D01*
X31089040Y33831717D01*
X31094325Y33823126D01*
X31138392Y33762917D01*
X31149404Y33754487D01*
X31162146Y33761356D01*
X32007978Y34607188D01*
X32014356Y34618868D01*
X32744408Y34618868D01*
X32744539Y34617035D01*
X32748790Y34610420D01*
X33598567Y33760643D01*
X33610947Y33753883D01*
X33619680Y33760421D01*
X33703069Y33886887D01*
X33707926Y33895722D01*
X33803259Y34107846D01*
X33806642Y34117347D01*
X33866836Y34341993D01*
X33868655Y34351905D01*
X33892378Y34585460D01*
X33892698Y34591184D01*
X33892970Y34617143D01*
X33892771Y34622848D01*
X33873943Y34856858D01*
X33872331Y34866811D01*
X33816856Y35092663D01*
X33813673Y35102233D01*
X33722803Y35316310D01*
X33718130Y35325247D01*
X33622036Y35477845D01*
X33611465Y35487176D01*
X33602303Y35483093D01*
X32752022Y34632812D01*
X32744408Y34618868D01*
X32014356Y34618868D01*
X32015592Y34621132D01*
X32015461Y34622965D01*
X32011210Y34629580D01*
X31161314Y35479476D01*
X31148746Y35486339D01*
X31137697Y35478155D01*
X31111296Y35443625D01*
X31105832Y35435146D01*
X30995936Y35230191D01*
X30991894Y35220939D01*
X30916182Y35001053D01*
X30913673Y34991281D01*
X30874089Y34762115D01*
X30873174Y34752067D01*
X30870739Y34519521D01*
X21424364Y34519521D01*
X21461749Y34591184D01*
X21473690Y34614074D01*
X21478328Y34629580D01*
X21532575Y34810973D01*
X21534294Y34816720D01*
X21555485Y35027170D01*
X21555500Y35033000D01*
X21535411Y35243558D01*
X21520033Y35295978D01*
X21477557Y35440765D01*
X21477556Y35440767D01*
X21475869Y35446518D01*
X21379022Y35634558D01*
X21248365Y35800891D01*
X21206605Y35837129D01*
X21190571Y35851043D01*
X31514891Y35851043D01*
X31522081Y35837129D01*
X32367188Y34992022D01*
X32381132Y34984408D01*
X32382965Y34984539D01*
X32389580Y34988790D01*
X33074265Y35673475D01*
X64182479Y35673475D01*
X64182479Y35662525D01*
X64201468Y35445477D01*
X64203370Y35434690D01*
X64259761Y35224239D01*
X64263509Y35213943D01*
X64355586Y35016481D01*
X64361064Y35006995D01*
X64397506Y34954949D01*
X64407984Y34946574D01*
X64421432Y34953642D01*
X65122978Y35655188D01*
X65129356Y35666868D01*
X65859408Y35666868D01*
X65859539Y35665035D01*
X65863790Y35658420D01*
X66569290Y34952920D01*
X66581064Y34946490D01*
X66593080Y34955787D01*
X66628936Y35006995D01*
X66634414Y35016481D01*
X66726491Y35213943D01*
X66730239Y35224239D01*
X66786630Y35434690D01*
X66788532Y35445477D01*
X66807521Y35662525D01*
X66807521Y35673475D01*
X66788532Y35890523D01*
X66786630Y35901310D01*
X66730239Y36111761D01*
X66726491Y36122057D01*
X66634414Y36319519D01*
X66628936Y36329005D01*
X66592494Y36381051D01*
X66582016Y36389426D01*
X66568568Y36382358D01*
X65867022Y35680812D01*
X65859408Y35666868D01*
X65129356Y35666868D01*
X65130592Y35669132D01*
X65130461Y35670965D01*
X65126210Y35677580D01*
X64420710Y36383080D01*
X64408936Y36389510D01*
X64396920Y36380213D01*
X64361064Y36329005D01*
X64355586Y36319519D01*
X64263509Y36122057D01*
X64259761Y36111761D01*
X64203370Y35901310D01*
X64201468Y35890523D01*
X64182479Y35673475D01*
X33074265Y35673475D01*
X33241493Y35840703D01*
X33248701Y35853904D01*
X33242495Y35862597D01*
X33239120Y35864943D01*
X33038114Y35981931D01*
X33029023Y35986286D01*
X32811907Y36069629D01*
X32802230Y36072477D01*
X32574591Y36120033D01*
X32564564Y36121300D01*
X32332251Y36131848D01*
X32322173Y36131497D01*
X32091150Y36104767D01*
X32081256Y36102808D01*
X31857473Y36039484D01*
X31848029Y36035972D01*
X31637247Y35937682D01*
X31628482Y35932703D01*
X31523215Y35861164D01*
X31514891Y35851043D01*
X21190571Y35851043D01*
X21093144Y35935587D01*
X21093139Y35935591D01*
X21088613Y35939518D01*
X20905529Y36045434D01*
X20790820Y36085268D01*
X20711393Y36112850D01*
X20711390Y36112851D01*
X20705719Y36114820D01*
X20510711Y36143095D01*
X20446165Y36172665D01*
X20439696Y36178696D01*
X19509405Y37108987D01*
X19475379Y37171299D01*
X19472500Y37198082D01*
X19472500Y37954000D01*
X32355500Y37954000D01*
X32375462Y37764073D01*
X32434476Y37582446D01*
X32529963Y37417058D01*
X32534381Y37412151D01*
X32534382Y37412150D01*
X32650078Y37283656D01*
X32657749Y37275137D01*
X32663091Y37271256D01*
X32663093Y37271254D01*
X32800670Y37171299D01*
X32812250Y37162886D01*
X32818278Y37160202D01*
X32818280Y37160201D01*
X32849015Y37146517D01*
X32986713Y37085210D01*
X33080113Y37065357D01*
X33167056Y37046876D01*
X33167061Y37046876D01*
X33173513Y37045504D01*
X33364487Y37045504D01*
X33370939Y37046876D01*
X33370944Y37046876D01*
X33457887Y37065357D01*
X33551287Y37085210D01*
X33688985Y37146517D01*
X33719720Y37160201D01*
X33719722Y37160202D01*
X33725750Y37162886D01*
X33737330Y37171299D01*
X33874907Y37271254D01*
X33874909Y37271256D01*
X33880251Y37275137D01*
X33887922Y37283656D01*
X34003618Y37412150D01*
X34003619Y37412151D01*
X34008037Y37417058D01*
X34103524Y37582446D01*
X34162538Y37764073D01*
X34182500Y37954000D01*
X34162538Y38143927D01*
X34103524Y38325554D01*
X34092604Y38344469D01*
X34011338Y38485224D01*
X34008037Y38490942D01*
X33916889Y38592173D01*
X33884673Y38627952D01*
X33884672Y38627953D01*
X33880251Y38632863D01*
X33874909Y38636744D01*
X33874907Y38636746D01*
X33731092Y38741233D01*
X33731091Y38741234D01*
X33725750Y38745114D01*
X33719722Y38747798D01*
X33719720Y38747799D01*
X33557318Y38820105D01*
X33557317Y38820105D01*
X33551287Y38822790D01*
X33456203Y38843001D01*
X33370944Y38861124D01*
X33370939Y38861124D01*
X33364487Y38862496D01*
X33173513Y38862496D01*
X33167061Y38861124D01*
X33167056Y38861124D01*
X33081797Y38843001D01*
X32986713Y38822790D01*
X32980683Y38820105D01*
X32980682Y38820105D01*
X32818280Y38747799D01*
X32818278Y38747798D01*
X32812250Y38745114D01*
X32806909Y38741234D01*
X32806908Y38741233D01*
X32663093Y38636746D01*
X32663091Y38636744D01*
X32657749Y38632863D01*
X32653328Y38627953D01*
X32653327Y38627952D01*
X32621112Y38592173D01*
X32529963Y38490942D01*
X32526662Y38485224D01*
X32445397Y38344469D01*
X32434476Y38325554D01*
X32375462Y38143927D01*
X32355500Y37954000D01*
X19472500Y37954000D01*
X19472500Y39916610D01*
X19489381Y39979610D01*
X19495220Y39989723D01*
X19495221Y39989724D01*
X19498524Y39995446D01*
X19543286Y40133210D01*
X19555498Y40170794D01*
X19555498Y40170795D01*
X19557538Y40177073D01*
X19577500Y40367000D01*
X19572360Y40415904D01*
X19558228Y40550363D01*
X19558228Y40550364D01*
X19557538Y40556927D01*
X19498524Y40738554D01*
X19403037Y40903942D01*
X19320657Y40995435D01*
X19279673Y41040952D01*
X19279672Y41040953D01*
X19275251Y41045863D01*
X19269909Y41049744D01*
X19269907Y41049746D01*
X19126092Y41154233D01*
X19126091Y41154234D01*
X19120750Y41158114D01*
X19114722Y41160798D01*
X19114720Y41160799D01*
X18952318Y41233105D01*
X18952317Y41233105D01*
X18946287Y41235790D01*
X18852887Y41255643D01*
X18765944Y41274124D01*
X18765939Y41274124D01*
X18759487Y41275496D01*
X18568513Y41275496D01*
X18562061Y41274124D01*
X18562056Y41274124D01*
X18475113Y41255643D01*
X18381713Y41235790D01*
X18375683Y41233105D01*
X18375682Y41233105D01*
X18213280Y41160799D01*
X18213278Y41160798D01*
X18207250Y41158114D01*
X18201909Y41154234D01*
X18201908Y41154233D01*
X18058093Y41049746D01*
X18058091Y41049744D01*
X18052749Y41045863D01*
X18048328Y41040953D01*
X18048327Y41040952D01*
X18007344Y40995435D01*
X17924963Y40903942D01*
X17829476Y40738554D01*
X17770462Y40556927D01*
X17769772Y40550364D01*
X17769772Y40550363D01*
X17755640Y40415904D01*
X17750500Y40367000D01*
X17140000Y40367000D01*
X17140000Y43034000D01*
X24735500Y43034000D01*
X24755462Y42844073D01*
X24814476Y42662446D01*
X24817779Y42656724D01*
X24817780Y42656723D01*
X24850485Y42600076D01*
X24909963Y42497058D01*
X24914381Y42492151D01*
X24914382Y42492150D01*
X24983136Y42415791D01*
X25013854Y42351784D01*
X25015500Y42331481D01*
X25015500Y39926519D01*
X24995498Y39858398D01*
X24983136Y39842209D01*
X24909963Y39760942D01*
X24906662Y39755224D01*
X24839328Y39638598D01*
X24814476Y39595554D01*
X24755462Y39413927D01*
X24735500Y39224000D01*
X24755462Y39034073D01*
X24814476Y38852446D01*
X24909963Y38687058D01*
X24914381Y38682151D01*
X24914382Y38682150D01*
X25025843Y38558360D01*
X25037749Y38545137D01*
X25043091Y38541256D01*
X25043093Y38541254D01*
X25148854Y38464415D01*
X25192250Y38432886D01*
X25198278Y38430202D01*
X25198280Y38430201D01*
X25213944Y38423227D01*
X25366713Y38355210D01*
X25440942Y38339432D01*
X25547056Y38316876D01*
X25547061Y38316876D01*
X25553513Y38315504D01*
X25744487Y38315504D01*
X25750939Y38316876D01*
X25750944Y38316876D01*
X25857058Y38339432D01*
X25931287Y38355210D01*
X26084056Y38423227D01*
X26099720Y38430201D01*
X26099722Y38430202D01*
X26105750Y38432886D01*
X26149146Y38464415D01*
X26254907Y38541254D01*
X26254909Y38541256D01*
X26260251Y38545137D01*
X26272157Y38558360D01*
X26383618Y38682150D01*
X26383619Y38682151D01*
X26388037Y38687058D01*
X26483524Y38852446D01*
X26542538Y39034073D01*
X26562500Y39224000D01*
X26542538Y39413927D01*
X26483524Y39595554D01*
X26458673Y39638598D01*
X26391338Y39755224D01*
X26388037Y39760942D01*
X26314864Y39842209D01*
X26284146Y39906216D01*
X26282500Y39926519D01*
X26282500Y41002000D01*
X32355500Y41002000D01*
X32375462Y40812073D01*
X32434476Y40630446D01*
X32529963Y40465058D01*
X32534381Y40460151D01*
X32534382Y40460150D01*
X32653327Y40328048D01*
X32657749Y40323137D01*
X32663091Y40319256D01*
X32663093Y40319254D01*
X32695104Y40295997D01*
X32812250Y40210886D01*
X32818278Y40208202D01*
X32818280Y40208201D01*
X32980682Y40135895D01*
X32986713Y40133210D01*
X33080113Y40113357D01*
X33167056Y40094876D01*
X33167061Y40094876D01*
X33173513Y40093504D01*
X33364487Y40093504D01*
X33370939Y40094876D01*
X33370944Y40094876D01*
X33457887Y40113357D01*
X33551287Y40133210D01*
X33557318Y40135895D01*
X33719720Y40208201D01*
X33719722Y40208202D01*
X33725750Y40210886D01*
X33842896Y40295997D01*
X33874907Y40319254D01*
X33874909Y40319256D01*
X33880251Y40323137D01*
X33884673Y40328048D01*
X34003618Y40460150D01*
X34003619Y40460151D01*
X34008037Y40465058D01*
X34103524Y40630446D01*
X34162538Y40812073D01*
X34182500Y41002000D01*
X34162538Y41191927D01*
X34155972Y41212137D01*
X34105566Y41367269D01*
X34103524Y41373554D01*
X34008037Y41538942D01*
X33880251Y41680863D01*
X33874909Y41684744D01*
X33874907Y41684746D01*
X33731092Y41789233D01*
X33731091Y41789234D01*
X33725750Y41793114D01*
X33719722Y41795798D01*
X33719720Y41795799D01*
X33557318Y41868105D01*
X33557317Y41868105D01*
X33551287Y41870790D01*
X33457887Y41890643D01*
X33370944Y41909124D01*
X33370939Y41909124D01*
X33364487Y41910496D01*
X33173513Y41910496D01*
X33167061Y41909124D01*
X33167056Y41909124D01*
X33080113Y41890643D01*
X32986713Y41870790D01*
X32980683Y41868105D01*
X32980682Y41868105D01*
X32818280Y41795799D01*
X32818278Y41795798D01*
X32812250Y41793114D01*
X32806909Y41789234D01*
X32806908Y41789233D01*
X32663093Y41684746D01*
X32663091Y41684744D01*
X32657749Y41680863D01*
X32529963Y41538942D01*
X32434476Y41373554D01*
X32432434Y41367269D01*
X32382029Y41212137D01*
X32375462Y41191927D01*
X32355500Y41002000D01*
X26282500Y41002000D01*
X26282500Y42331481D01*
X26302502Y42399602D01*
X26314864Y42415791D01*
X26383618Y42492150D01*
X26383619Y42492151D01*
X26388037Y42497058D01*
X26447515Y42600076D01*
X26480220Y42656723D01*
X26480221Y42656724D01*
X26483524Y42662446D01*
X26542538Y42844073D01*
X26562500Y43034000D01*
X26542538Y43223927D01*
X26522596Y43285304D01*
X26496731Y43364906D01*
X26483524Y43405554D01*
X26388037Y43570942D01*
X26355525Y43607051D01*
X26264673Y43707952D01*
X26264672Y43707953D01*
X26260251Y43712863D01*
X26254909Y43716744D01*
X26254907Y43716746D01*
X26111092Y43821233D01*
X26111091Y43821234D01*
X26105750Y43825114D01*
X26099722Y43827798D01*
X26099720Y43827799D01*
X25937318Y43900105D01*
X25937317Y43900105D01*
X25931287Y43902790D01*
X25837887Y43922643D01*
X25750944Y43941124D01*
X25750939Y43941124D01*
X25744487Y43942496D01*
X25553513Y43942496D01*
X25547061Y43941124D01*
X25547056Y43941124D01*
X25460113Y43922643D01*
X25366713Y43902790D01*
X25360683Y43900105D01*
X25360682Y43900105D01*
X25198280Y43827799D01*
X25198278Y43827798D01*
X25192250Y43825114D01*
X25186909Y43821234D01*
X25186908Y43821233D01*
X25043093Y43716746D01*
X25043091Y43716744D01*
X25037749Y43712863D01*
X25033328Y43707953D01*
X25033327Y43707952D01*
X24942476Y43607051D01*
X24909963Y43570942D01*
X24814476Y43405554D01*
X24801269Y43364906D01*
X24775405Y43285304D01*
X24755462Y43223927D01*
X24735500Y43034000D01*
X17140000Y43034000D01*
X17140000Y44558000D01*
X39632875Y44558000D01*
X39633565Y44551435D01*
X39651570Y44380132D01*
X39652837Y44368073D01*
X39654877Y44361795D01*
X39654877Y44361794D01*
X39660999Y44342952D01*
X39711851Y44186446D01*
X39715154Y44180724D01*
X39715155Y44180723D01*
X39720994Y44170610D01*
X39737875Y44107610D01*
X39737875Y42341390D01*
X39720994Y42278390D01*
X39711851Y42262554D01*
X39652837Y42080927D01*
X39632875Y41891000D01*
X39652837Y41701073D01*
X39654877Y41694795D01*
X39654877Y41694794D01*
X39660999Y41675952D01*
X39711851Y41519446D01*
X39715154Y41513724D01*
X39715155Y41513723D01*
X39719874Y41505550D01*
X39807338Y41354058D01*
X39811756Y41349151D01*
X39811757Y41349150D01*
X39930702Y41217048D01*
X39935124Y41212137D01*
X39940466Y41208256D01*
X39940468Y41208254D01*
X40014822Y41154233D01*
X40089625Y41099886D01*
X40095653Y41097202D01*
X40095655Y41097201D01*
X40258057Y41024895D01*
X40264088Y41022210D01*
X40357488Y41002357D01*
X40444431Y40983876D01*
X40444436Y40983876D01*
X40450888Y40982504D01*
X40641862Y40982504D01*
X40648315Y40983876D01*
X40648328Y40983877D01*
X40817303Y41019795D01*
X40888093Y41014394D01*
X40944726Y40971577D01*
X40969220Y40904940D01*
X40969500Y40896549D01*
X40969500Y38635975D01*
X40949498Y38567854D01*
X40934518Y38548845D01*
X40904152Y38517124D01*
X40900900Y38512088D01*
X40900898Y38512085D01*
X40792670Y38344469D01*
X40789418Y38339432D01*
X40710354Y38143251D01*
X40709206Y38137370D01*
X40709204Y38137365D01*
X40670962Y37941539D01*
X40669814Y37935659D01*
X40669798Y37929674D01*
X40669798Y37929670D01*
X40669621Y37861717D01*
X40669261Y37724145D01*
X40670379Y37718258D01*
X40697957Y37572999D01*
X40708713Y37516343D01*
X40786748Y37319751D01*
X40900550Y37141461D01*
X41046013Y36987907D01*
X41050878Y36984417D01*
X41050881Y36984415D01*
X41082785Y36961532D01*
X41217887Y36864630D01*
X41223332Y36862120D01*
X41399712Y36780808D01*
X41409972Y36776078D01*
X41415788Y36774644D01*
X41415791Y36774643D01*
X41495398Y36755016D01*
X41615337Y36725445D01*
X41621327Y36725136D01*
X41621329Y36725136D01*
X41684111Y36721901D01*
X41826570Y36714560D01*
X41832505Y36715389D01*
X41832509Y36715389D01*
X41988543Y36737180D01*
X42036051Y36743814D01*
X42068863Y36755016D01*
X64773574Y36755016D01*
X64780642Y36741568D01*
X65482188Y36040022D01*
X65496132Y36032408D01*
X65497965Y36032539D01*
X65504580Y36036790D01*
X66210080Y36742290D01*
X66216510Y36754064D01*
X66207213Y36766080D01*
X66156005Y36801936D01*
X66146519Y36807414D01*
X65949057Y36899491D01*
X65938761Y36903239D01*
X65728310Y36959630D01*
X65717523Y36961532D01*
X65500475Y36980521D01*
X65489525Y36980521D01*
X65272477Y36961532D01*
X65261690Y36959630D01*
X65051239Y36903239D01*
X65040943Y36899491D01*
X64843481Y36807414D01*
X64833995Y36801936D01*
X64781949Y36765494D01*
X64773574Y36755016D01*
X42068863Y36755016D01*
X42236221Y36812152D01*
X42419857Y36917109D01*
X42424401Y36921010D01*
X42424406Y36921014D01*
X42575786Y37050992D01*
X42580334Y37054897D01*
X42711860Y37220544D01*
X42809690Y37408074D01*
X42870294Y37610720D01*
X42875298Y37660410D01*
X42885103Y37757794D01*
X42891485Y37821170D01*
X42891500Y37827000D01*
X42881705Y37929670D01*
X42871981Y38031584D01*
X42871411Y38037558D01*
X42869723Y38043312D01*
X42835315Y38160597D01*
X70371996Y38160597D01*
X70372359Y38156449D01*
X70372359Y38156445D01*
X70374029Y38137363D01*
X70398145Y37861717D01*
X70399055Y37857645D01*
X70399056Y37857640D01*
X70461849Y37576723D01*
X70463593Y37568920D01*
X70567190Y37287352D01*
X70569134Y37283664D01*
X70569138Y37283656D01*
X70665853Y37100220D01*
X70707116Y37021958D01*
X70880913Y36777402D01*
X70883757Y36774353D01*
X70883762Y36774346D01*
X70938741Y36715389D01*
X71085528Y36557980D01*
X71088757Y36555327D01*
X71088762Y36555323D01*
X71197322Y36466151D01*
X71317365Y36367546D01*
X71320922Y36365340D01*
X71320927Y36365337D01*
X71407485Y36311669D01*
X71572351Y36209448D01*
X71846007Y36086462D01*
X71892919Y36072477D01*
X72129528Y36001940D01*
X72129536Y36001938D01*
X72133525Y36000749D01*
X72137642Y36000097D01*
X72137646Y36000096D01*
X72426385Y35954365D01*
X72426390Y35954365D01*
X72429853Y35953816D01*
X72480677Y35951508D01*
X72523476Y35949564D01*
X72523495Y35949564D01*
X72524895Y35949500D01*
X76210277Y35949500D01*
X76434362Y35964384D01*
X76728465Y36023685D01*
X77012142Y36121363D01*
X77015875Y36123232D01*
X77015879Y36123234D01*
X77276669Y36253828D01*
X77276671Y36253829D01*
X77280407Y36255700D01*
X77528550Y36424338D01*
X77620398Y36506459D01*
X77749092Y36621525D01*
X77749093Y36621526D01*
X77752209Y36624312D01*
X77947455Y36852110D01*
X78038468Y36992257D01*
X78108580Y37100220D01*
X78108583Y37100225D01*
X78110859Y37103730D01*
X78137674Y37160201D01*
X78211034Y37314698D01*
X78239549Y37374750D01*
X78331264Y37660410D01*
X78384394Y37955690D01*
X78397328Y38240518D01*
X78397815Y38251233D01*
X78397815Y38251238D01*
X78398004Y38255403D01*
X78392417Y38319269D01*
X78372331Y38548845D01*
X78371855Y38554283D01*
X78364903Y38585388D01*
X78307319Y38843001D01*
X78307318Y38843004D01*
X78306407Y38847080D01*
X78202810Y39128648D01*
X78200866Y39132336D01*
X78200862Y39132344D01*
X78064831Y39390349D01*
X78062884Y39394042D01*
X77889087Y39638598D01*
X77886243Y39641647D01*
X77886238Y39641654D01*
X77687326Y39854959D01*
X77684472Y39858020D01*
X77681243Y39860673D01*
X77681238Y39860677D01*
X77455872Y40045795D01*
X77452635Y40048454D01*
X77449078Y40050660D01*
X77449073Y40050663D01*
X77272246Y40160300D01*
X77197649Y40206552D01*
X76923993Y40329538D01*
X76820351Y40360435D01*
X76640472Y40414060D01*
X76640464Y40414062D01*
X76636475Y40415251D01*
X76632358Y40415903D01*
X76632354Y40415904D01*
X76343615Y40461635D01*
X76343610Y40461635D01*
X76340147Y40462184D01*
X76289323Y40464492D01*
X76246524Y40466436D01*
X76246505Y40466436D01*
X76245105Y40466500D01*
X72559723Y40466500D01*
X72335638Y40451616D01*
X72041535Y40392315D01*
X71757858Y40294637D01*
X71754125Y40292768D01*
X71754121Y40292766D01*
X71536196Y40183637D01*
X71489593Y40160300D01*
X71241450Y39991662D01*
X71238336Y39988878D01*
X71238335Y39988877D01*
X71195268Y39950371D01*
X71017791Y39791688D01*
X70822545Y39563890D01*
X70820271Y39560388D01*
X70714456Y39397447D01*
X70659141Y39312270D01*
X70657347Y39308491D01*
X70657346Y39308490D01*
X70617227Y39224000D01*
X70530451Y39041250D01*
X70438736Y38755590D01*
X70385606Y38460310D01*
X70371996Y38160597D01*
X42835315Y38160597D01*
X42813557Y38234765D01*
X42813556Y38234767D01*
X42811869Y38240518D01*
X42809122Y38245852D01*
X42717768Y38423227D01*
X42717766Y38423230D01*
X42715022Y38428558D01*
X42613414Y38557910D01*
X42587064Y38623835D01*
X42586500Y38635743D01*
X42586500Y43218610D01*
X42603381Y43281610D01*
X42609220Y43291723D01*
X42609221Y43291724D01*
X42612524Y43297446D01*
X42671538Y43479073D01*
X42691500Y43669000D01*
X42671538Y43858927D01*
X42658159Y43900105D01*
X42627225Y43995308D01*
X42612524Y44040554D01*
X42517037Y44205942D01*
X42414245Y44320105D01*
X42393673Y44342952D01*
X42393672Y44342953D01*
X42389251Y44347863D01*
X42383909Y44351744D01*
X42383907Y44351746D01*
X42240092Y44456233D01*
X42240091Y44456234D01*
X42234750Y44460114D01*
X42228722Y44462798D01*
X42228720Y44462799D01*
X42066318Y44535105D01*
X42066317Y44535105D01*
X42060287Y44537790D01*
X41966887Y44557643D01*
X41879944Y44576124D01*
X41879939Y44576124D01*
X41873487Y44577496D01*
X41682513Y44577496D01*
X41676058Y44576124D01*
X41676049Y44576123D01*
X41599617Y44559876D01*
X41528826Y44565277D01*
X41472193Y44608093D01*
X41448109Y44669951D01*
X41440603Y44741363D01*
X41440603Y44741364D01*
X41439913Y44747927D01*
X41423497Y44798452D01*
X47415000Y44798452D01*
X47415000Y44218257D01*
X47415161Y44213750D01*
X47419740Y44149731D01*
X47422126Y44136509D01*
X47458819Y44011542D01*
X47466233Y43995308D01*
X47535426Y43887640D01*
X47547112Y43874153D01*
X47643840Y43790338D01*
X47658848Y43780693D01*
X47775275Y43727523D01*
X47792388Y43722498D01*
X47923554Y43703639D01*
X47932495Y43703000D01*
X48505885Y43703000D01*
X48521124Y43707475D01*
X48522329Y43708865D01*
X48524000Y43716548D01*
X48524000Y44793885D01*
X48519525Y44809124D01*
X48518135Y44810329D01*
X48510452Y44812000D01*
X47433115Y44812000D01*
X47417876Y44807525D01*
X47416671Y44806135D01*
X47415000Y44798452D01*
X41423497Y44798452D01*
X41382941Y44923269D01*
X41380899Y44929554D01*
X41285412Y45094942D01*
X41157626Y45236863D01*
X41152284Y45240744D01*
X41152282Y45240746D01*
X41008467Y45345233D01*
X41008466Y45345234D01*
X41003125Y45349114D01*
X40997097Y45351798D01*
X40997095Y45351799D01*
X40834693Y45424105D01*
X40834692Y45424105D01*
X40828662Y45426790D01*
X40735262Y45446643D01*
X40648319Y45465124D01*
X40648314Y45465124D01*
X40641862Y45466496D01*
X40450888Y45466496D01*
X40444436Y45465124D01*
X40444431Y45465124D01*
X40357488Y45446643D01*
X40264088Y45426790D01*
X40258058Y45424105D01*
X40258057Y45424105D01*
X40095655Y45351799D01*
X40095653Y45351798D01*
X40089625Y45349114D01*
X40084284Y45345234D01*
X40084283Y45345233D01*
X39940468Y45240746D01*
X39940466Y45240744D01*
X39935124Y45236863D01*
X39807338Y45094942D01*
X39711851Y44929554D01*
X39709809Y44923269D01*
X39669254Y44798452D01*
X39652837Y44747927D01*
X39652147Y44741364D01*
X39652147Y44741363D01*
X39638140Y44608093D01*
X39632875Y44558000D01*
X17140000Y44558000D01*
X17140000Y45911505D01*
X47415000Y45911505D01*
X47415000Y45338115D01*
X47419475Y45322876D01*
X47420865Y45321671D01*
X47428548Y45320000D01*
X48505885Y45320000D01*
X48521124Y45324475D01*
X48522329Y45325865D01*
X48524000Y45333548D01*
X48524000Y46410885D01*
X48519525Y46426124D01*
X48518135Y46427329D01*
X48510452Y46429000D01*
X47930257Y46429000D01*
X47925750Y46428839D01*
X47861731Y46424260D01*
X47848509Y46421874D01*
X47723542Y46385181D01*
X47707308Y46377767D01*
X47599640Y46308574D01*
X47586153Y46296888D01*
X47502338Y46200160D01*
X47492693Y46185152D01*
X47439523Y46068725D01*
X47434498Y46051612D01*
X47415639Y45920446D01*
X47415000Y45911505D01*
X17140000Y45911505D01*
X17140000Y48369000D01*
X17160002Y48437121D01*
X17213658Y48483614D01*
X17266000Y48495000D01*
X56384000Y48495000D01*
X56452121Y48474998D01*
G37*
%TD.AperFunction*%
%TD*%
M02*
